<?xml version="1.0" encoding="UTF-8" standalone="no"?>
<svg
   width="900"
   height="1200"
   viewBox="0 0 900 1200"
   version="1.1"
   id="svg150"
   sodipodi:docname="bust-2.svg"
   inkscape:version="1.2.2 (b0a84865, 2022-12-01)"
   xmlns:inkscape="http://www.inkscape.org/namespaces/inkscape"
   xmlns:sodipodi="http://sodipodi.sourceforge.net/DTD/sodipodi-0.dtd"
   xmlns="http://www.w3.org/2000/svg"
   xmlns:svg="http://www.w3.org/2000/svg"
   xmlns:rdf="http://www.w3.org/1999/02/22-rdf-syntax-ns#"
   xmlns:cc="http://creativecommons.org/ns#"
   xmlns:dc="http://purl.org/dc/elements/1.1/">
  <defs
     id="defs154" />
  <sodipodi:namedview
     id="namedview152"
     pagecolor="#ffffff"
     bordercolor="#000000"
     borderopacity="0.25"
     inkscape:showpageshadow="2"
     inkscape:pageopacity="0.0"
     inkscape:pagecheckerboard="0"
     inkscape:deskcolor="#d1d1d1"
     showgrid="false"
     inkscape:zoom="0.30789302"
     inkscape:cx="115.29979"
     inkscape:cy="501.79767"
     inkscape:window-width="1512"
     inkscape:window-height="861"
     inkscape:window-x="44"
     inkscape:window-y="30"
     inkscape:window-maximized="0"
     inkscape:current-layer="a-mono/bust" />
  <!-- Generator: Sketch 62 (91390) - https://sketch.com -->
  <title
     id="title132">a mono/bust</title>
  <desc
     id="desc134">Created with Sketch.</desc>
  <g
     id="a-mono/bust"
     stroke="none"
     stroke-width="1"
     fill="none"
     fill-rule="evenodd"
     transform="translate(13.999997,-166.5)">
    <g
       id="body/mono/Tee-Arms-Crossed"
       stroke="none"
       stroke-width="1"
       fill="none"
       fill-rule="evenodd"
       transform="matrix(0.94309797,0,0,0.94309797,19.575784,643.9149)">
      <path
         d="m 659.9332,217.9773 c -8.684,-3.096 -17.054,-6.672 -24.68,-11.932 -21.983,-16.363 -36.317,-40.988 -49.861,-64.319 -19.078,-33.933 -32.669,-70.091 -42.064,-107.811 -4.037,-16.206 -5.408,-34.996 -14.58,-49.364 -20.792,-30.085 -81.761,-26.187 -114.136,-20.906 -21.68,3.836 -26.161,28.098 -31.085,46.051 -4.1,14.917 -6.784,30.003 -9.037,45.291 -5.36,3.524 -11.411,6.386 -17.179,8.879 -62.859,19.275 -73.907,55.009 -97.916,110.207 -40.551,80.229 -150.586,111.642 -167.207,206.591 -10.709,62.685 19.744,121.658 51.141,173.77 29.24,56.921 70.061,84.241 135.07,70.793 60.975,-13.678 119.575,-36.559 179.477,-54.24 29.013,-7.133 57.98,-25.687 88.499,-19.218 62.885,14.123 127.496,20.763 191.942,18.93 90.484,3.659 90.47,-83.186 81.183,-150.439 -6.505,-104.661 -59.295,-171.865 -159.567,-202.283 z"
         id="🎨-Background"
         fill="#ffffff" />
      <path
         d="m 665.9826,369.422 c 7.561,5 13.92,12.581 19.025,20.559 -21.312,-2.217 -42.587,-4.773 -63.815,-7.683 2.779,-1.776 5.584,-3.513 8.453,-5.153 10.467,-5.898 24.649,-15.451 36.337,-7.723 z m -354.085,62.998 c -3.905,-1.529 -5.416,-7.483 -6.938,-10.896 -4.772,-10.703 -9.127,-21.588 -13.658,-32.395 17.204,-4.904 33.934,-10.345 51.756,-12.959 19.163,-2.808 38.609,-3.488 57.949,-2.857 39.174,1.278 77.984,7.68 116.498,14.545 38.469,6.857 76.936,13.445 115.674,18.615 37.953,5.065 76.026,8.772 114.17,12.026 7.411,0.633 19.768,3.298 25.728,-2.534 4.719,-4.619 4.872,-13.138 -1.033,-16.893 -3.678,-2.341 -9.007,-2.375 -13.209,-2.915 -5.292,-0.681 -10.605,-1.134 -15.929,-1.487 -2.169,-0.143 -4.338,-0.275 -6.508,-0.407 17.417,-6.567 35.608,-10.148 54.49,-9.15 1.068,6.487 5.879,13.161 8.512,18.511 4.598,9.34 8.182,18.793 10.535,28.949 4.918,21.228 5.132,43.26 3.743,64.911 -1.276,18.052 -4.017,38.02 -18.177,50.805 -10.721,9.68 -25.847,13.264 -39.88,14.391 -16.31,1.31 -32.872,-0.089 -49.045,-2.275 -22.684,-3.067 -45.474,-7.123 -67.712,-12.559 -43.071,-10.528 -84.355,-27.28 -122.444,-49.992 -18.575,-11.075 -36.299,-23.535 -55.129,-34.189 -19.187,-10.858 -39.603,-19.281 -61.041,-24.511 -23.991,-5.853 -49.071,-8.351 -73.729,-6.907 -4.279,0.25 -10.461,1.802 -14.623,0.173 z m -27.802,-10.868 c 2.521,8.181 4.45,17.522 9.831,24.396 5.33,6.812 13.371,9.216 21.701,9.822 10.044,0.729 20.206,0.262 30.272,0.636 20.645,0.767 41.007,4.12 60.743,10.271 18.392,5.733 35.465,14.675 51.911,24.595 15.208,9.174 29.97,19.023 45.183,28.169 -4.049,1.856 -8.052,3.864 -12.077,5.612 -8.442,3.666 -16.936,7.203 -25.468,10.652 -16.825,6.8 -33.721,13.435 -50.79,19.599 -34.418,12.429 -69.402,23.288 -104.807,32.538 -16.886,4.412 -34.012,9.565 -51.555,10.299 -15.556,0.65 -29.965,-3.747 -42.511,-12.996 -26.022,-19.184 -46.725,-46.874 -63.461,-74.187 -9.943,-16.227 -18.62,-33.277 -25.797,-50.906 -3.63,-8.915 -6.922,-17.967 -9.885,-27.125 -1.39,-4.3 -2.708,-8.624 -3.956,-12.968 -0.549,-1.91 -1.075,-3.826 -1.596,-5.744 26.609,-8.12 53.534,-15.45 81.091,-19.519 14.713,-2.173 29.622,-3.273 44.496,-3.113 7.383,0.079 14.762,0.478 22.106,1.24 3.953,0.41 7.89,0.938 11.81,1.592 1.62,0.269 3.285,0.667 4.955,0.96 2.551,8.741 5.123,17.475 7.804,26.177 z m 550.042,-34.754 c 1.434,-2.901 2.039,-5.755 2.553,-8.913 0.392,-2.409 1.432,-5.8 0.521,-8.928 -1.02,-3.503 -3.799,-6.636 -5.794,-9.624 -2.203,-3.302 -4.404,-6.606 -6.602,-9.912 -4.397,-6.611 -8.784,-13.228 -13.164,-19.85 -17.887,-27.041 -35.652,-54.16 -53.445,-81.262 -15.79,-24.051 -31.314,-48.318 -47.585,-72.046 -13.913,-20.29 -29.078,-40.245 -48.122,-56.025 -24.079,-19.952 -52.751,-29.351 -82.7,-36.685 -3.271,-3.395 -7.64,-5.249 -12.31,-4.873 -6.598,-7.483 -11.842,-12.71 -14.219,-22.226 -1.139,-4.558 -0.782,-17.365 -5.221,-20.062 -5.273,-3.204 -8.02687,1.036636 -9.481,5.816 -4.865,15.99 0.719,37.488 13.569,53.505 -5.414,18.711 -12.592,45.303 -25.397,60.293 -13.712,16.051 -32.675,21.047 -53.135,21.376 -39.018,0.628 -77.995,-13.873 -107.756,-39.005 -9.046,-7.638 -17.447,-16.169 -25.048,-25.242 -5.701,-6.807 -12.445,-17.312 -16.905,-25.252 0,-3.094224 -3.65331,-6.33 33.54,-8.83 37.19331,-2.5 40.014,-53.427 40.841,-60.358 0.672,-5.628 3.53,-14.364 -0.436,-18.953 -1.683,-1.949 -5.137,-2.263 -7.271,-0.939 -4.024,2.499 -5.346,8.889 -6.611,13.228 -1.772,6.079 -7.565,43.806 -18.542,48.174 -5.139,2.045 -11.033,2.083 -16.469,2.461 -6.713,0.469 -13.44,0.812 -20.126,1.593 -2.466,0.288 -5.156,1.086 -7.589,1.109 -1.583,0.015 -3.216,-0.754 -4.746,-1.294 -5.164,-1.825 -10.324,-0.456 -15.644,0.259 -47.036,6.321 -95.467,20.748 -135.587,46.707 -35.362,22.88 -60.275,55.785 -76.714,94.257 -16.773,39.262 -26.387,81.719 -34.444,123.515 -2.699,14.004 -5.056,28.073 -7.081,42.19 -1.957,13.641 -4.405,27.587 -4.991,41.366 -0.232,5.452 1.071,10.517 3.076,15.497 2.258,5.605 7.595,7.815 12.714,10.432 11.237,5.748 23.091,10.206 35.304,13.363 7.461,13.573 13.74,27.676 18.786,42.313 -1.872,3.709 -1.911,9.248 -2.271,12.853 -0.893,8.977 -1.275,18.001 -1.355,27.019 -0.161,18.075 0.926,36.132 1.778,54.179 0.864,18.304 3.736,90.523 4.204,99.342 0.364,6.851 -0.126,16.434 3.483,22.516 5.546,9.349 19.234,9.034 25.574,1.454 157.524,33.8638 453.6247,23.664 572.879,6.626 15.51619,-2.21682 10.644,0.242 14.59,-3.678 2.961,-2.944 5.481,-7.985 6.3,-12.036 1.094,-5.408 -0.672,-10.302 -3.768,-14.678 -3.255,-4.6 -3.848,-12.05 -5.057,-17.52 -2.859,-12.931 -4.28,-69.721 -5.616,-76.014 -0.416,-1.961 -0.819,-4.034 -1.305,-6.108 21.875,2.072 44.668,2.072 65.479,-5.244 11.801,-4.149 22.807,-10.666 31.279,-19.971 10.258,-11.267 15.965,-25.451 18.9,-40.256 3.787,-19.091 4.591,-38.866 3.847,-58.273 -1.034,-22.936 -4.838,-46.195 -14.28,-67.254 3.107,-2.885 5.711,-6.366 7.57,-10.132 z"
         id="🖍-Ink"
         fill="#000000" />
    </g>
    <g
       id="facial-hair/*-None"
       transform="matrix(0.94309797,0,0,0.94309797,721.25508,552.27318)"
       inkscape:label="facial-hair/*-None" />
    <g
       id="accessories/*-None"
       transform="matrix(0.94309797,0,0,0.94309797,649.57967,460.793)" />
    <g
       id="g376"
       transform="matrix(0.94309797,0,0,0.94309797,-126.00547,32.068057)">
      <g
         id="head/mono/Shaved-2"
         stroke="none"
         stroke-width="1"
         fill="none"
         fill-rule="evenodd"
         transform="translate(388.0374,189.96486)">
        <path
           d="m 388.41667,151.80883 c -7.07799,-25.496 -6.06557,-28.25363 -16.61457,-52.60663 -34.98,-70.75 -268.739,-47.061 -292.596,23.563 -12.942589,38.31401 -9.902,92.273 -13.271,125.496 -1.030956,17.6147 -2.04368,35.23051 -3.09279,52.84373 -0.362314,6.08278 -0.728967,12.16526 -1.10221,18.24727 -0.727,11.84 -1.434,23.68 -2.094,35.524 -4.395,36.486 13.941,40.197 45.392,39.117 8.315,20.061 21.782,36.807 38.417,50.432 -4.015,10.922 10.545,16.576 18.399,20.943 42.733,23.86 95.224,38.415 142.557,24.998 13.90757,-3.94224 71.34152,-17.59562 89.001,-59.86148 8.67208,-20.7556 26.30095,-128.24111 3.05295,-224.92911 z"
           id="🎨-Background-2"
           fill="#ffffff" />
        <path
           d="m 239.0013,-14.494 c 6.609,-1.169 14,-0.719 17.789,5.771 0.82,1.399 1.34,2.81 1.59,4.2 18.06,-4.06 36.81,-4.5 55.26,-1.84 5.5,0.789 7.43,8.119 5.01,12.31 -0.25,0.43 -0.5,0.849 -0.77,1.26 5.78,0.469 11.55,1.469 17.27,3.01 4.07,1.1 7.87,6.37 6.061,10.69 -0.161,0.38 -0.331,0.76 -0.5,1.139 8.989,1.511 17.579,5.041 25.089,10.741 0.9,0.67 1.73,1.54 2.42,2.53 16.79,-1.891 34.08,1.58 49.07,9.68 4.2,2.269 6.23,8.81 3.38,12.89 -0.89,1.27 -1.82,2.48 -2.82,3.65 6.52,2.41 12.29,6.309 16.18,12.66 4.23,6.89 5.53,15.76 3.26,23.34 4.74,4.83 7.22,12.229 5.53,19.649 -1.54,6.771 -5.69,11.07 -11.01,13.651 1.08,3.3 0.21,7.05 -2.24,9.599 -3.76,3.91 -8.26,6.91 -13.16,8.881 -0.01,1.27 -0.33,2.58 -0.97,3.8 -4.42,8.479 -13.95,14.11 -23.64,14.96 3.26,13.689 5.94,27.55 8.54,41.33 4.621,24.51 8.2,49.26 10.38,74.109 l 0.26461,3.07306 c 3.55124,42.04827 4.37682,86.09863 -4.17461,127.57794 -5.45,26.41 -21.97,48.67 -44.01,63.75 -22.41,15.339 -49.79,22.97 -76.73,24.179 -13.74,0.611 -27.609,-0.55 -41.069,-3.369 -6.391,-1.34 -12.561,-3.24 -18.631,-5.66 -6.53,-2.61 -11.909,-6.46 -17.43,-10.79 -2.87,-2.25 -1.229,-7.56 2.17,-8.231 2.43,-0.489 4.83,-1.019 7.25,-1.459 2.22,-0.411 4.641,1.81 4.18,3.86 l 4.68224,1.20557 c 1.56064,0.40253 3.12032,0.80854 4.67648,1.22649 l 2.33128,0.63694 c 6.63,1.851 13.41,3.41 20.21,4.521 13.84,2.25 28.24,2.3 42.15,0.55 23.39,-2.93 47.28,-11.27 65.47,-26.64 8.92,-7.54 16.35,-16.47 21.74,-26.84 6.85,-13.171 8.92,-27.841 10.64,-42.41 4.97,-42.13 3.44,-84.32 -0.42,-126.46 -1.92,-20.96 -4.54,-41.88 -7.32,-62.75 -1.43,-10.7 -2.97,-21.42 -4.239,-32.16 -2.831,-0.76 -5.531,-2.02 -7.951,-3.85 -1.64,-1.24 -2.6,-2.681 -3.02,-4.15 -2.44375,-0.46096 -4.78556,-1.80175 -6.47358,-4.06901 L 364.8003,154.957 c -4.43,-6.411 -12.089,-10.08 -19.18,-12.75 -4.3,-1.62 -8.68,-3.031 -13.04,-4.47 -4.54,-1.51 -9.34,-3.74 -14.11,-4.32 -5.41,-0.64 -10.86,0.99 -16.32,0.41 -4.96,-0.54 -9.33,-2.321 -12.899,-5.88 -1.25,-1.24 -2.331,-2.67 -3.191,-4.21 -16.65,3.559 -34.14,-0.93 -51.44,0.15 -11.38,0.72 -21.42,7.76 -32.92,7.57 -3.14,-0.05 -6.18,-1.15 -8.39,-3.08 -10.849,2.07 -21.88,6.049 -32.08,9.469 -10.08,3.381 -19.78,7.931 -29.74,11.621 -0.01,0.01 -0.01,0.01 -0.01,0.02 -1.3,4.21 -5.18,6.029 -9.31,5.29 -13.51,-2.41 -24.89,-10.931 -38.04,-14.05 -3.62,13.19 -7.51,26.209 -10.169,39.66 -2.691,13.57 -4.581,27.32 -5.831,41.1 -1.26,13.83 -1.86,27.8 -1.89,41.68 -0.01,7.08 0.17,14.179 0.41,21.259 0.194444,5.93153 1.324653,13.43117 -0.818212,19.13553 L 65.6403,304.046 h -0.01 c -0.26,0.831 -1.43,1.331 -2.09,0.561 -4.03,-4.681 -4.99,-12.13 -6.11,-18.011 -1.36,-7.139 -2.23,-14.349 -2.929,-21.58 -1.401,-14.51 -1.711,-28.959 -0.971,-43.529 1.45,-28.68 6.05,-58.971 15.87,-86.08 -3.02,0.279 -4.37,-4.17 -4.57,-6.68 -0.382609,-5.04435 0.407561,-10.3972 1.263911,-15.45628 l 0.895302,-5.23729 c 0.848843,-4.94351 1.747454,-9.758097 3.430787,-14.56643 4.041,-11.541 9.85,-22.38 17.09,-32.23 14.77,-20.09 35.241,-35.301 58.55,-44.07 1.46,-0.55 2.84,-0.54 4.06,-0.121 21.21,-11.429 44.01,-20.229 67.17,-26.489 7.16,-1.93 14.41,-3.75 21.711,-5.051 z M 62.8606,307.9365 c 9.63,-6.039 29.5,-7.619 34.87,5.25 0.22,0.52 -0.4,0.98 -0.86,0.86 l -1.314047,-0.33193 c -5.047726,-1.25078 -9.409637,-1.96944 -14.585953,0.10293 -4.55,1.82 -8.97,4.669 -11.98,8.589 -7.115238,9.27048 -7.886762,21.86293 -7.223207,33.10796 l 0.03321,0.54304 c 0.62,9.869 3.15,21.889 12.8,26.769 4.89,2.47 10.18,2.29 15.49,2.25 6.05,-0.04 12.229997,0.62 18.009997,2.481 3.23,1.039 4.75,5.319 2.07,7.83 -0.89,0.83 -1.82,1.609 -2.8,2.309 2.93,3.121 5.81,6.281 8.6,9.611 4.73,5.649 9.76,11.109 15.01,16.279 5.08,4.99 10.46,9.82 16.26,13.96 6.1,4.341 13.4,7.39 18.68,12.71 3.44,3.461 2.85,8.29 0,11.79 -7.0752,8.69856 -19.11782,-0.44598 -25.88263,-5.58948 l -0.81737,-0.62052 c -7.03,-5.32 -13.71,-11.06 -19.4,-17.82 -5.8,-6.9 -10.82,-14.24 -14.53,-22.47 -2.18,-4.84 -3.57,-9.409 -4.32,-14.189 -12.159997,5.28 -27.489997,3.599 -38.389997,-3.831 -14.47,-9.86 -18.53,-27.959 -18.580648,-44.48 l 0.0015,-0.97944 C 44.108496,336.0086 48.3272,317.0505 62.8606,307.9365 Z m 27.433788,23.27514 0.445912,0.005 c 5.355333,0.116 10.13131,2.04482 14.68022,4.70251 l 0.46978,0.27749 c 4.42,2.63 10.76,4.739 13.1,9.66 1.4,2.97 1.3,6.37 -1.14,8.829 -4.42,4.461 -11.09,3.721 -15.87,0.24 -3.57,-2.609 -5.92,-6.519 -9.42,-9.16 -6.58,-4.979 -16.96,-4.699 -23.809,-0.389 -0.421,0.27 -0.83,-0.24 -0.641,-0.64 4.206288,-8.60758 12.542523,-13.55853 22.184088,-13.52526 z"
           id="🖍-Ink-04"
           fill="#000000"
           inkscape:label="🖍-Ink-04" />
      </g>
      <g
         id="face/Smile"
         transform="translate(531,366)"
         fill="#000000">
        <path
           d="m 146.58657,240.92655 c -6.72228,-2.74235 -12.72025,-7.31677 -17.10534,-13.1603 -1.52454,-2.03145 -1.91983,-4.17663 -1.60001,-6.13867 0.35961,-2.20617 1.66482,-4.20568 3.44483,-5.54689 1.78552,-1.34536 4.01898,-2.00886 6.17828,-1.67063 1.8763,0.29391 3.74407,1.32123 5.22226,3.45185 l 0.30884,0.42607 c 2.60701,3.52695 6.00419,6.42077 9.87504,8.28601 3.73087,1.79779 7.90347,2.63688 12.22143,2.14893 8.22383,-0.92898 13.89211,-5.37652 19.91687,-11.4162 0.74679,-0.76253 1.49406,-1.54895 2.24494,-2.34804 0.4742,-0.72437 1.13228,-1.18992 1.86291,-1.43419 0.81125,-0.27122 1.72895,-0.25587 2.5695,0.0375 0.81071,0.28292 1.53545,0.81904 2.02141,1.53259 0.46186,0.67816 0.72372,1.51595 0.63875,2.4796 -0.55145,6.25914 -3.82381,11.84516 -8.47205,16.23136 -5.16246,4.87144 -12.00568,8.24153 -18.44827,9.42353 -7.09785,1.30202 -14.33037,0.3692 -20.87939,-2.30248 z m 24.22773,-96.5594 c 7.55138,4.59005 19.05736,15.29314 10.93382,26.67242 -9.56219,10.03349 -23.32959,-1.47059 -30.11392,-6.67344 -6.29075,-4.03223 -13.35876,6.33838 -7.5222,11.04669 49.02374,36.29524 68.91861,-29.84543 30.52169,-36.44243 -4.22764,-0.72697 -5.7978,3.97678 -3.81939,5.39676 z M 82.9633,102.1464 c 0.834328,-10.356276 16.607,-12.708 18.176,-2.46 1.405,9.18 -0.249,17.613 -4.384,25.878 -3.951,7.896 -13.881517,4.21214 -14.632517,-2.97786 C 81.116098,112.94865 82.4443,108.5886 82.9633,102.1464 Z M 203.027,97.5615 c 2.199,-2.88 5.374,-4.846 9.178,-3.735 11.885,3.473 8.382,20.346 4.208,28.559 -2.268,4.46 -9.599,5.591 -12.912,1.664 -5.4,-6.404 -7.986,-19.193 -1.121,-25.501 0.186,-0.326 0.393,-0.655 0.647,-0.987 z M 96.5879,56.8305 98.465271,56.501905 C 104.27307,55.49746 111.4944,54.5323 115.6029,59.2015 c 2.179,2.476 2.929,7.078 0,9.448 -5.152,4.17 -10.848,2.554 -17.022,2.907 -5.088,0.292 -9.978,1.134 -14.879,2.535 -10.752,3.073 -19.513,8.683 -28.696,14.843 -1.205,0.808 -2.435,-0.733 -1.86,-1.86 5.301,-10.383 15.574,-18.912 25.864,-24.111 5.492,-2.775 11.502,-5.077 17.578,-6.133 z m 95.60498,-4.651112 1.43693,0.29408 c 15.63723,3.268609 35.95366,9.797923 43.35865,25.157378 0.28216,2.171881 -0.016,2.637359 -0.25841,2.941475 l -0.0807,0.1012 c -0.19977,0.259698 -0.35917,0.617689 -1.30056,0.913286 -0.26123,-0.06224 -0.52507,-0.128164 -0.7917,-0.198038 -3.39431,-0.889526 -6.07988,-2.114973 -8.67978,-3.38652 l -2.81896,-1.3888 c -3.27056,-1.603618 -6.56999,-3.148872 -10.06663,-4.289637 -7.46213,-2.433945 -15.13757,-4.148508 -22.93193,-5.064045 -1.68937,-0.198267 -3.31613,-0.768428 -4.59952,-1.745591 -1.2182,-0.927524 -2.14882,-2.211702 -2.57313,-3.918655 -0.54991,-2.20907 -0.39188,-3.881517 0.79338,-5.874422 0.89125,-1.496628 2.16647,-2.533988 3.63075,-3.129675 1.49278,-0.607277 3.19228,-0.750442 4.88162,-0.412036 z"
           id="path144" />
      </g>
      <g
         id="accessories/Glasses"
         stroke="none"
         stroke-width="1"
         fill="none"
         fill-rule="evenodd"
         transform="translate(415.37978,419.42728)">
        <path
           d="m 389.0901,63.2824 c -9.534,64.489 -76.088,71.621 -87.913,7.599 1.898,-0.831 3.263,-2.467 2.978,-5.643 -0.067,-13.952 4.264,-28.698 16.85,-36.457 13.006,-8.006 28.227,-8.8 43.278,-8.598 28.722,-0.684 28.118,23.323 24.807,43.099 m -98.332,-28.047 c -9.014,-0.38 -20.418,-0.062 -28.493,5.43 -2.22,-5.978 -7.988,-12.361 -13.816,-15.774 21.662,0.634 43.96,-1.498 65.784,-3.153 -5.224,3.561 -10.084,8.911 -13.243,15.096 -2.931,-1.563 -7.129,-1.417 -10.232,-1.599 m -39.732,34.884 c -24.995,86.036 -87.386,48.536 -94.188,37.51 -12.269,-18.246 -14.577,-62.6 -3.89,-74.459 15.298,-10.724 36.955,-7.964 55.027,-8.227 33.201,0.448 56.781,10.38 43.051,45.176 m 167.577,-39.571 c -6.791,-0.888 -14.048,-1.067 -20.362,1.923 -1.944,-8.263 -8.047,-15.171 -14.938,-18.211 -0.834,-1.046 -0.709,-1.608 -3.558,-1.451 -17.495,-5.258 -37.072,-2.476 -53.884,2.916 -26.552,2.236 -54.409,3.999 -81.184,7.08 -25.082,-11.264 -100.775,-12.915 -105.479,14.848 -5.917,-0.885 -15.994,-5.542 -20.966,0.775 -36.471,-6.183 -74.156,2.41 -110.785,6.237 -9.22,1.698 -13.969,19.996 -3.503,19.746 5.884,-1.597 -0.181,-11.394 7.742,-12.131 35.341,-3.86 69.909,-9.336 105.612,-9.977 -1.242,6.165 23.614,6.566 23.981,2.966 0.053,0.027 0.109,0.045 0.163,0.069 -6.142,22.89 -0.598,55.832 10.502,70.026 15.552,18.586 54.597,23.918 71.91,11.96 22.333,-11.037 45.566,-66.439 39.04,-84.845 11.844,-3.754 23.553,-2.627 35.845,-0.715 -2.814,7.949 -7.672,27.517 -0.683,29.214 -1.283,38.85 34.074,63.091 66.668,47.154 28.211,-13.243 38.077,-55.161 34.625,-80.604 3.512,6.786 33,-0.602 19.254,-6.98"
           id="🖍-Ink-2"
           fill="#000000" />
      </g>
    </g>
  </g>
  <metadata
     id="metadata886">
    <rdf:RDF>
      <cc:Work
         rdf:about="">
        <dc:title>a mono/bust</dc:title>
      </cc:Work>
    </rdf:RDF>
  </metadata>
</svg>
