<?xml version="1.0" encoding="UTF-8" standalone="no"?>
<svg
   viewBox="0 0 50 50"
   width="100px"
   height="100px"
   version="1.1"
   id="svg417"
   sodipodi:docname="calendar.svg"
   inkscape:version="1.2.2 (b0a84865, 2022-12-01)"
   xmlns:inkscape="http://www.inkscape.org/namespaces/inkscape"
   xmlns:sodipodi="http://sodipodi.sourceforge.net/DTD/sodipodi-0.dtd"
   xmlns="http://www.w3.org/2000/svg"
   xmlns:svg="http://www.w3.org/2000/svg">
  <defs
     id="defs421" />
  <sodipodi:namedview
     id="namedview419"
     pagecolor="#ffffff"
     bordercolor="#000000"
     borderopacity="0.25"
     inkscape:showpageshadow="2"
     inkscape:pageopacity="0.0"
     inkscape:pagecheckerboard="0"
     inkscape:deskcolor="#d1d1d1"
     showgrid="false"
     inkscape:zoom="2.36"
     inkscape:cx="-153.17797"
     inkscape:cy="51.059322"
     inkscape:window-width="1920"
     inkscape:window-height="1027"
     inkscape:window-x="0"
     inkscape:window-y="25"
     inkscape:window-maximized="0"
     inkscape:current-layer="svg417" />
  <path
     d="M 11,4 C 7.1456661,4 4,7.1456661 4,11 v 28 c 0,3.854334 3.1456661,7 7,7 h 28 c 3.854334,0 7,-3.145666 7,-7 V 11 C 46,7.1456661 42.854334,4 39,4 Z m 0,2 h 28 c 2.773666,0 5,2.2263339 5,5 v 28 c 0,2.773666 -2.226334,5 -5,5 H 11 C 8.2263339,44 6,41.773666 6,39 V 11 C 6,8.2263339 8.2263339,6 11,6 Z"
     id="path415"
     sodipodi:nodetypes="ssssssssssssssssss" />
  <path
     d="m 14.898435,10.877117 c -0.556341,0 -1.008777,0.452436 -1.008777,1.008777 v 3.026331 h -1.008777 c -1.28266,0 -1.988481,0.731356 -1.988985,2.059916 l 0.0069,0.08768 c 0.517503,2.931003 1.79169,9.09367 1.971253,9.959706 -0.177545,0.879151 -1.454735,7.220275 -1.972238,10.15279 l -0.0069,0.08768 c 0,1.148997 0.713388,1.862888 1.862887,1.862888 h 24.465805 c 1.183799,0 1.889486,-0.754061 1.889486,-2.017555 l -0.0079,-0.08768 c -0.517008,-2.92949 -1.814745,-9.124455 -1.998847,-10.001082 0.181581,-0.873098 1.457211,-7.027764 1.974209,-9.956749 l 0.0069,-0.07586 c 0.01561,-0.663774 -0.153389,-1.181646 -0.503434,-1.539762 -0.344466,-0.353578 -0.84541,-0.531974 -1.488506,-0.531974 h -1.008753 v -3.026331 c 0,-0.556341 -0.452437,-1.008777 -1.008777,-1.008777 z m 0,1.008777 h 20.175546 v 3.026331 H 14.898435 Z m -2.017554,4.035108 h 24.210654 c 0.361646,0 0.619634,0.07626 0.767419,0.227567 0.147786,0.151316 0.220261,0.411661 0.21673,0.774316 -0.556341,3.143853 -1.967967,9.923617 -1.98209,9.992214 l -0.02168,0.103439 0.02168,0.102457 c 0.01463,0.0691 1.448384,6.880822 2.005732,10.026694 -0.01412,0.850399 -0.450994,0.966417 -0.879723,0.966417 H 12.753798 c -0.57702,0 -0.8415,-0.251351 -0.85411,-0.812736 0.557853,-3.149907 1.965996,-10.1137 1.98012,-10.184315 l 0.02068,-0.101476 -0.02168,-0.10048 c -0.01412,-0.0686 -1.421304,-6.840433 -1.978149,-9.986304 0.0096,-0.743469 0.270029,-1.007793 0.980207,-1.007793 z m 18.662379,5.043887 -4.035109,1.008777 v 1.008778 h 2.521943 v 4.035108 6.052663 H 31.54326 V 27.017552 Z M 20.745206,21.06537 c -1.085949,0 -1.965334,0.311949 -2.638189,0.935877 -0.672854,0.62393 -0.995624,1.38193 -0.968387,2.273689 l 0.01576,0.04827 h 1.531885 c 0.01261,-0.637547 0.200841,-1.101514 0.563496,-1.453074 0.375265,-0.365177 0.873547,-0.547734 1.494449,-0.547734 0.653687,0 1.147713,0.175487 1.482627,0.527047 0.335417,0.351054 0.502418,0.864388 0.502418,1.539765 0,0.631999 -0.147282,1.124605 -0.44134,1.478686 -0.294059,0.35408 -0.795154,0.530987 -1.503316,0.530987 h -1.393963 v 0.618666 h 0.002 v 0.6295 h 1.393964 c 0.73439,0 1.272202,0.17217 1.612665,0.51818 0.340462,0.346011 0.510299,0.88332 0.510299,1.612664 0,0.718754 -0.191982,1.261713 -0.575318,1.629412 -0.383336,0.3677 -0.91266,0.551675 -1.588036,0.551675 -0.664785,0 -1.188506,-0.183975 -1.569319,-0.551675 -0.381316,-0.367186 -0.571375,-0.861715 -0.571375,-1.482617 h -1.524002 l -0.02464,0.04827 c -0.02673,0.993142 0.312003,1.781296 1.017642,2.362352 0.705136,0.581056 1.595342,0.870858 2.670698,0.870858 1.096542,0 1.997592,-0.308196 2.702224,-0.924055 0.704631,-0.616363 1.058033,-1.461365 1.058033,-2.53672 0,-0.616364 -0.148266,-1.172476 -0.442325,-1.669803 -0.283967,-0.480677 -0.761591,-0.837106 -1.430411,-1.058027 l -0.0729,-0.03546 c 0.589126,-0.253708 1.030442,-0.622093 1.325005,-1.106306 0.294562,-0.484213 0.442325,-0.968307 0.442325,-1.455043 0,-1.075357 -0.324188,-1.902467 -0.972327,-2.483523 -0.648645,-0.581058 -1.518124,-0.871845 -2.609621,-0.871845 z m -5.846771,14.022398 c -0.278421,0 -0.504388,0.225462 -0.504388,0.504389 v 1.008776 c 0,0.278928 0.225967,0.50439 0.504388,0.50439 0.278423,0 0.504389,-0.225462 0.504389,-0.50439 v -1.008776 c 0,-0.278927 -0.225966,-0.504389 -0.504389,-0.504389 z m 2.521945,0 c -0.278424,0 -0.50439,0.225462 -0.50439,0.504389 v 1.008776 c 0,0.278928 0.225966,0.50439 0.50439,0.50439 0.278421,0 0.504388,-0.225462 0.504388,-0.50439 v -1.008776 c 0,-0.278927 -0.225967,-0.504389 -0.504388,-0.504389 z m 2.521941,0 c -0.278422,0 -0.504388,0.225462 -0.504388,0.504389 v 1.008776 c 0,0.278928 0.225966,0.50439 0.504388,0.50439 0.278423,0 0.50439,-0.225462 0.50439,-0.50439 v -1.008776 c 0,-0.278927 -0.225967,-0.504389 -0.50439,-0.504389 z m 2.521944,0 c -0.278423,0 -0.504389,0.225462 -0.504389,0.504389 v 1.008776 c 0,0.278928 0.225966,0.50439 0.504389,0.50439 0.278422,0 0.504388,-0.225462 0.504388,-0.50439 v -1.008776 c 0,-0.278927 -0.225966,-0.504389 -0.504388,-0.504389 z m 2.521943,0 c -0.278423,0 -0.504389,0.225462 -0.504389,0.504389 v 1.008776 c 0,0.278928 0.225966,0.50439 0.504389,0.50439 0.278926,0 0.504388,-0.225462 0.504388,-0.50439 v -1.008776 c 0,-0.278927 -0.225462,-0.504389 -0.504388,-0.504389 z m 2.521943,0 c -0.278926,0 -0.504389,0.225462 -0.504389,0.504389 v 1.008776 c 0,0.278928 0.225463,0.50439 0.504389,0.50439 0.278927,0 0.504388,-0.225462 0.504388,-0.50439 v -1.008776 c 0,-0.278927 -0.225461,-0.504389 -0.504388,-0.504389 z m 2.521943,0 c -0.278926,0 -0.504388,0.225462 -0.504388,0.504389 v 1.008776 c 0,0.278928 0.225462,0.50439 0.504388,0.50439 0.278927,0 0.504388,-0.225462 0.504388,-0.50439 v -1.008776 c 0,-0.278927 -0.225461,-0.504389 -0.504388,-0.504389 z m 2.521943,0 c -0.278926,0 -0.504388,0.225462 -0.504388,0.504389 v 1.008776 c 0,0.278928 0.225462,0.50439 0.504388,0.50439 0.278927,0 0.504389,-0.225462 0.504389,-0.50439 v -1.008776 c 0,-0.278927 -0.225462,-0.504389 -0.504389,-0.504389 z m 2.521944,0 c -0.278928,0 -0.504388,0.225462 -0.504388,0.504389 v 1.008776 c 0,0.278928 0.22546,0.50439 0.504388,0.50439 0.278926,0 0.504389,-0.225462 0.504389,-0.50439 v -1.008776 c 0,-0.278927 -0.225463,-0.504389 -0.504389,-0.504389 z"
     id="path569"
     style="stroke-width:0.504388" />
</svg>
