<?xml version="1.0" encoding="UTF-8" standalone="no"?>
<svg
   viewBox="0 0 50 50"
   width="100px"
   height="100px"
   version="1.1"
   id="svg417"
   sodipodi:docname="github.svg"
   inkscape:version="1.2.2 (b0a84865, 2022-12-01)"
   xmlns:inkscape="http://www.inkscape.org/namespaces/inkscape"
   xmlns:sodipodi="http://sodipodi.sourceforge.net/DTD/sodipodi-0.dtd"
   xmlns="http://www.w3.org/2000/svg"
   xmlns:svg="http://www.w3.org/2000/svg">
  <defs
     id="defs421" />
  <sodipodi:namedview
     id="namedview419"
     pagecolor="#ffffff"
     bordercolor="#000000"
     borderopacity="0.25"
     inkscape:showpageshadow="2"
     inkscape:pageopacity="0.0"
     inkscape:pagecheckerboard="0"
     inkscape:deskcolor="#d1d1d1"
     showgrid="false"
     inkscape:zoom="2.36"
     inkscape:cx="-102.33051"
     inkscape:cy="51.059322"
     inkscape:window-width="1920"
     inkscape:window-height="1027"
     inkscape:window-x="0"
     inkscape:window-y="25"
     inkscape:window-maximized="0"
     inkscape:current-layer="svg417" />
  <path
     d="M 11,4 C 7.1456661,4 4,7.1456661 4,11 v 28 c 0,3.854334 3.1456661,7 7,7 h 28 c 3.854334,0 7,-3.145666 7,-7 V 11 C 46,7.1456661 42.854334,4 39,4 Z m 0,2 h 28 c 2.773666,0 5,2.2263339 5,5 v 28 c 0,2.773666 -2.226334,5 -5,5 H 11 C 8.2263339,44 6,41.773666 6,39 V 11 C 6,8.2263339 8.2263339,6 11,6 Z"
     id="path415"
     sodipodi:nodetypes="ssssssssssssssssss" />
  <path
     d="M 23.211349,9.6320162 C 15.866803,10.430337 9.9592334,16.337906 9.1609132,23.522788 c -0.7983203,7.50421 3.5126088,14.2101 10.0588348,16.764725 0.478992,0.159664 0.957984,-0.159664 0.957984,-0.79832 v -2.554625 c 0,0 -0.638656,0.159664 -1.436976,0.159664 -2.235297,0 -3.193281,-1.915968 -3.352945,-3.033617 -0.159664,-0.638656 -0.478992,-1.117648 -0.957984,-1.59664 -0.478992,-0.159664 -0.638656,-0.159664 -0.638656,-0.319328 0,-0.319328 0.478992,-0.319328 0.638656,-0.319328 0.957984,0 1.756304,1.117648 2.075632,1.59664 0.798321,1.277312 1.756305,1.59664 2.235297,1.59664 0.638656,0 1.117648,-0.159664 1.436976,-0.319328 0.159664,-1.117648 0.638656,-2.235296 1.596641,-2.873952 -3.672273,-0.798321 -6.386562,-2.873953 -6.386562,-6.386562 0,-1.756305 0.79832,-3.512609 1.915969,-4.789922 -0.159665,-0.319328 -0.319329,-1.117648 -0.319329,-2.235296 0,-0.638656 0,-1.596641 0.478993,-2.554625 0,0 2.235296,0 4.470593,2.075633 0.79832,-0.319328 1.915968,-0.478992 3.033617,-0.478992 1.117648,0 2.235296,0.159664 3.19328,0.478992 2.075633,-2.075633 4.470594,-2.075633 4.470594,-2.075633 0.319328,0.957984 0.319328,1.915969 0.319328,2.554625 0,1.277312 -0.159664,1.915968 -0.319328,2.235296 1.117648,1.277313 1.915968,2.873953 1.915968,4.789922 0,3.512609 -2.714289,5.588241 -6.386562,6.386562 0.957985,0.79832 1.596641,2.235296 1.596641,3.672273 v 4.151265 c 0,0.478992 0.478992,0.957984 1.117648,0.79832 5.90757,-2.394961 10.058835,-8.142866 10.058835,-14.848756 0,-9.579843 -8.142866,-17.0840528 -17.722709,-15.9664048 z"
     id="path1524"
     style="stroke-width:1.59664" />
</svg>
