<?xml version="1.0" encoding="UTF-8" standalone="no"?>
<svg
   viewBox="0 0 50 50"
   width="100px"
   height="100px"
   version="1.1"
   id="svg417"
   sodipodi:docname="gmail.svg"
   inkscape:version="1.2.2 (b0a84865, 2022-12-01)"
   xmlns:inkscape="http://www.inkscape.org/namespaces/inkscape"
   xmlns:sodipodi="http://sodipodi.sourceforge.net/DTD/sodipodi-0.dtd"
   xmlns="http://www.w3.org/2000/svg"
   xmlns:svg="http://www.w3.org/2000/svg">
  <defs
     id="defs421" />
  <sodipodi:namedview
     id="namedview419"
     pagecolor="#ffffff"
     bordercolor="#000000"
     borderopacity="0.25"
     inkscape:showpageshadow="2"
     inkscape:pageopacity="0.0"
     inkscape:pagecheckerboard="0"
     inkscape:deskcolor="#d1d1d1"
     showgrid="false"
     inkscape:zoom="2.36"
     inkscape:cx="-102.33051"
     inkscape:cy="51.059322"
     inkscape:window-width="1920"
     inkscape:window-height="1027"
     inkscape:window-x="0"
     inkscape:window-y="25"
     inkscape:window-maximized="0"
     inkscape:current-layer="svg417" />
  <path
     d="M 11,4 C 7.1456661,4 4,7.1456661 4,11 v 28 c 0,3.854334 3.1456661,7 7,7 h 28 c 3.854334,0 7,-3.145666 7,-7 V 11 C 46,7.1456661 42.854334,4 39,4 Z m 0,2 h 28 c 2.773666,0 5,2.2263339 5,5 v 28 c 0,2.773666 -2.226334,5 -5,5 H 11 C 8.2263339,44 6,41.773666 6,39 V 11 C 6,8.2263339 8.2263339,6 11,6 Z"
     id="path415"
     sodipodi:nodetypes="ssssssssssssssssss" />
  <path
     d="m 13.243997,14.148308 c -1.48834,0 -2.705859,1.215164 -2.712924,2.703503 0,0 0,0.0023 0,0.0047 0,0.0023 0,0.0023 0,0.0047 v 16.277543 c 0,1.490709 1.222229,2.712938 2.712924,2.712938 h 23.512005 c 1.490696,0 2.712925,-1.222229 2.712925,-2.712924 V 16.861232 c 0,-0.0023 0,-0.0023 0,-0.0047 0,-0.0023 0,-0.0047 0,-0.0047 -0.0071,-1.488355 -1.224584,-2.703519 -2.712925,-2.703519 z m 1.568409,1.205744 H 35.189948 L 25,22.456637 Z M 12.805973,15.424702 25,23.926138 37.196382,15.424702 c 0.617001,0.186043 1.062091,0.746524 1.0668,1.429466 -0.0023,0.127168 -0.131878,0.381505 -0.320275,0.586388 -0.190753,0.207237 -0.376795,0.33676 -0.376795,0.33676 l -0.0023,0.0047 -12.563757,8.89236 -12.563757,-8.892361 -0.0024,-0.0047 c 0,0 -0.186043,-0.129522 -0.376795,-0.33676 -0.188421,-0.204883 -0.317945,-0.45922 -0.320299,-0.586388 0.0047,-0.682941 0.449799,-1.243423 1.069156,-1.429466 z m -1.069156,3.336991 c 0,0 0.0047,0.0047 0.0047,0.0047 l 0.0047,0.0023 v 0.0023 l 1.799199,1.271698 v 14.60324 h -0.301439 c -0.838369,0 -1.50718,-0.668811 -1.50718,-1.50718 z m 26.526365,0 v 14.377082 c 0,0.838369 -0.668811,1.50718 -1.50718,1.50718 H 36.454566 V 20.042794 l 1.799196,-1.271683 v -0.0023 c 0,0 0.0094,-0.0071 0.0094,-0.0071 z M 14.751178,20.895293 25,28.148596 35.248823,20.895293 v 13.75066 H 14.751177 Z"
     id="path3653"
     style="fill:#000000;stroke-width:0.602872" />
</svg>
