<?xml version="1.0" encoding="UTF-8" standalone="no"?>
<svg
   viewBox="0 0 50 50"
   width="100px"
   height="100px"
   version="1.1"
   id="svg417"
   sodipodi:docname="goodreads.svg"
   inkscape:version="1.2.2 (b0a84865, 2022-12-01)"
   xmlns:inkscape="http://www.inkscape.org/namespaces/inkscape"
   xmlns:sodipodi="http://sodipodi.sourceforge.net/DTD/sodipodi-0.dtd"
   xmlns="http://www.w3.org/2000/svg"
   xmlns:svg="http://www.w3.org/2000/svg">
  <defs
     id="defs421" />
  <sodipodi:namedview
     id="namedview419"
     pagecolor="#ffffff"
     bordercolor="#000000"
     borderopacity="0.25"
     inkscape:showpageshadow="2"
     inkscape:pageopacity="0.0"
     inkscape:pagecheckerboard="0"
     inkscape:deskcolor="#d1d1d1"
     showgrid="false"
     inkscape:zoom="2.36"
     inkscape:cx="-153.17797"
     inkscape:cy="51.059322"
     inkscape:window-width="1920"
     inkscape:window-height="1027"
     inkscape:window-x="0"
     inkscape:window-y="25"
     inkscape:window-maximized="0"
     inkscape:current-layer="svg417" />
  <path
     d="M 11,4 C 7.1456661,4 4,7.1456661 4,11 v 28 c 0,3.854334 3.1456661,7 7,7 h 28 c 3.854334,0 7,-3.145666 7,-7 V 11 C 46,7.1456661 42.854334,4 39,4 Z m 0,2 h 28 c 2.773666,0 5,2.2263339 5,5 v 28 c 0,2.773666 -2.226334,5 -5,5 H 11 C 8.2263339,44 6,41.773666 6,39 V 11 C 6,8.2263339 8.2263339,6 11,6 Z"
     id="path415"
     sodipodi:nodetypes="ssssssssssssssssss" />
  <path
     d="m 25,10.792373 c -2.643751,0 -4.847205,1.132336 -6.343725,2.937803 -1.496519,1.805468 -2.304396,4.262875 -2.304396,6.945764 0,2.682888 0.807877,5.140295 2.304396,6.945763 1.49652,1.805468 3.699974,2.937803 6.343725,2.937803 2.643751,0 4.847205,-1.132335 6.343724,-2.937803 0.410718,-0.495508 0.764438,-1.043859 1.068951,-1.628762 v 5.802011 c 0,1.740756 -0.56227,3.258732 -1.703564,4.360255 -1.141296,1.101523 -2.894232,1.816974 -5.40025,1.816974 -5.0084,0 -7.103813,-2.800344 -7.103813,-5.559506 h -1.235446 c 0,3.418067 2.84637,6.794952 8.339259,6.794952 2.744628,0 4.852459,-0.80545 6.25927,-2.163237 1.406812,-1.357786 2.07999,-3.237527 2.07999,-5.249438 V 20.67594 11.410096 h -1.235446 v 3.948842 C 32.108162,14.774036 31.754442,14.225684 31.343724,13.730176 29.847205,11.924709 27.643751,10.792373 25,10.792373 Z m 0,1.235446 c 2.298032,0 4.109777,0.942046 5.393011,2.490195 1.283233,1.548151 2.019664,3.723598 2.019664,6.157926 0,2.434328 -0.736431,4.609775 -2.019664,6.157925 C 29.109777,28.382015 27.298032,29.32406 25,29.32406 c -2.298033,0 -4.109777,-0.942045 -5.393011,-2.490195 -1.283233,-1.54815 -2.019664,-3.723597 -2.019664,-6.157925 0,-2.434328 0.736431,-4.609775 2.019664,-6.157926 C 20.890223,12.969865 22.701967,12.027819 25,12.027819 Z"
     id="path684"
     style="stroke-width:0.617723" />
</svg>
