<?xml version="1.0" encoding="UTF-8" standalone="no"?>
<svg
   viewBox="0 0 50 50"
   width="100px"
   height="100px"
   version="1.1"
   id="svg417"
   sodipodi:docname="linkedin.svg"
   inkscape:version="1.2.2 (b0a84865, 2022-12-01)"
   xmlns:inkscape="http://www.inkscape.org/namespaces/inkscape"
   xmlns:sodipodi="http://sodipodi.sourceforge.net/DTD/sodipodi-0.dtd"
   xmlns="http://www.w3.org/2000/svg"
   xmlns:svg="http://www.w3.org/2000/svg">
  <defs
     id="defs421" />
  <sodipodi:namedview
     id="namedview419"
     pagecolor="#ffffff"
     bordercolor="#000000"
     borderopacity="0.25"
     inkscape:showpageshadow="2"
     inkscape:pageopacity="0.0"
     inkscape:pagecheckerboard="0"
     inkscape:deskcolor="#d1d1d1"
     showgrid="false"
     inkscape:zoom="2.36"
     inkscape:cx="-35.381356"
     inkscape:cy="48.516949"
     inkscape:window-width="1920"
     inkscape:window-height="1027"
     inkscape:window-x="0"
     inkscape:window-y="25"
     inkscape:window-maximized="0"
     inkscape:current-layer="svg417" />
  <path
     d="M 11,4 C 7.1456661,4 4,7.1456661 4,11 v 28 c 0,3.854334 3.1456661,7 7,7 h 28 c 3.854334,0 7,-3.145666 7,-7 V 11 C 46,7.1456661 42.854334,4 39,4 Z m 0,2 h 28 c 2.773666,0 5,2.2263339 5,5 v 28 c 0,2.773666 -2.226334,5 -5,5 H 11 C 8.2263339,44 6,41.773666 6,39 V 11 C 6,8.2263339 8.2263339,6 11,6 Z"
     id="path415"
     sodipodi:nodetypes="ssssssssssssssssss" />
  <path
     d="m 14.703694,11.981756 c -1.021993,0 -1.916639,0.290667 -2.571711,0.819776 -0.65507,0.52911 -1.055182,1.313072 -1.055182,2.169512 0,1.661683 1.488113,2.947894 3.455368,3.024776 a 0.59845693,0.59845693 0 0 0 0.171525,0.02838 c 1.062075,0 1.966106,-0.311321 2.611929,-0.862363 0.645828,-0.551043 1.014964,-1.345495 1.014964,-2.190804 a 0.59845693,0.59845693 0 0 0 -0.0012,-0.03313 c -0.09324,-1.672171 -1.581676,-2.95616 -3.625663,-2.95616 z m 0,1.197133 c 1.580223,0 2.359601,0.775898 2.426209,1.807532 -0.0043,0.504082 -0.199446,0.932267 -0.590287,1.265746 -0.395159,0.337166 -1.005292,0.57491 -1.835922,0.57491 -1.575908,0 -2.429757,-0.855532 -2.429757,-1.856032 0,-0.500251 0.205553,-0.91154 0.610396,-1.238539 0.404844,-0.326998 1.024361,-0.553617 1.819361,-0.553617 z m -3.028325,6.06375 a 0.60572565,0.60572565 0 0 0 -0.605665,0.605666 V 37.41259 a 0.60572565,0.60572565 0 0 0 0.605665,0.605666 h 6.05665 A 0.60572565,0.60572565 0 0 0 18.337685,37.41259 V 31.758139 19.848305 a 0.60572565,0.60572565 0 0 0 -0.605666,-0.605666 z m 9.084976,0 a 0.60572565,0.60572565 0 0 0 -0.605665,0.605666 v 17.564286 a 0.60572565,0.60572565 0 0 0 0.605665,0.605666 h 6.05665 A 0.60572565,0.60572565 0 0 0 27.42266,37.412591 V 27.72195 27.570534 27.419117 c 0,-1.177669 0.942158,-2.119828 2.119829,-2.119828 1.177668,0 2.119826,0.942159 2.119826,2.119828 v 9.993473 a 0.60572565,0.60572565 0 0 0 0.605666,0.605666 h 6.056651 A 0.60572565,0.60572565 0 0 0 38.930296,37.41259 V 27.116285 c 0,-2.499291 -0.734133,-4.479225 -1.971959,-5.829527 -1.237826,-1.350302 -2.964688,-2.044119 -4.819297,-2.044119 -2.36466,0 -3.79478,0.863724 -4.71638,1.575675 v -0.970009 a 0.60572565,0.60572565 0 0 0 -0.605665,-0.605666 z m -8.479311,1.21133 h 4.84532 v 11.30417 5.048787 h -4.84532 z m 9.084977,0 h 4.84532 v 1.598151 a 0.60572565,0.60572565 0 0 0 1.056365,0.404567 c 0,0 1.796221,-2.002717 4.871344,-2.002717 1.558315,0 2.924405,0.558586 3.926178,1.651384 1.00177,1.092799 1.65375,2.746667 1.65375,5.010932 v 9.69064 H 32.873647 V 27.419117 A 0.60572565,0.60572565 0 0 0 32.822787,27.1707 c -0.134432,-1.711448 -1.535778,-3.08274 -3.280292,-3.08274 -1.832488,0 -3.331158,1.49867 -3.331158,3.331157 v 0.151417 0.151416 9.084976 h -4.845321 z"
     id="path601"
     style="stroke-width:0.605666" />
</svg>
