<svg xmlns="http://www.w3.org/2000/svg"  viewBox="0 0 100 100" width="100px" height="100px" baseProfile="basic"><path fill="#5a5c70" d="M14.12,57.241l2.981-34.397c0.349-4.036,3.924-7.012,7.944-6.677	c4.038,0.351,7.027,3.907,6.677,7.945l-0.807,9.316c-7.852,5.509-11.488,13.814-12.379,19.072L16.224,63	C14.772,61.523,13.927,59.467,14.12,57.241z"/><path fill="#5a5c70" d="M70.027,69.442c-2.596,0.252-5.277,0.388-8.033,0.388c-1.689,0-3.404-0.05-5.142-0.15	c-12.343-0.713-23.826-3.974-32.334-9.182c-1.072-0.656-2.078-1.335-3.025-2.033l-4.47,20.532c11.705-0.034,26.631-0.034,51.144,0	v-3.055C68.084,73.601,68.744,71.351,70.027,69.442z"/><path fill="#5a5c70" d="M82.632,33.228c-0.668-0.758-1.825-0.835-2.589-0.167l-7.327,6.434	c-8.558-7.5-20.127-8.037-20.127-8.037c-2.051-0.091-3.261-0.245-5.045-0.057v-9.574c0-1.014-0.821-1.835-1.834-1.835	s-1.834,0.821-1.834,1.835v10.168c-16.969,3.132-21.097,21.248-21.097,21.248l-0.153,0.695c1.223,0.999,2.549,1.976,4.06,2.901	c8.002,4.898,18.88,7.971,30.631,8.649c8.941,0.509,17.34-0.42,24.384-2.428l0.012-0.873c0.214-9.139-2.53-15.565-6.409-20.082	l7.16-6.287C83.225,35.148,83.3,33.989,82.632,33.228z M38.05,47.541c-1.498,1.759-3.765,2.289-5.063,1.183	c-1.298-1.106-1.136-3.428,0.362-5.187c1.498-1.759,3.765-2.288,5.063-1.183C39.71,43.46,39.548,45.782,38.05,47.541z M60.337,58.288c-2,0-3.621-2.053-3.621-4.586c0-2.533,1.621-4.586,3.621-4.586c2,0,3.621,2.053,3.621,4.586	C63.958,56.234,62.337,58.288,60.337,58.288z"/><path fill="#5a5c70" d="M86.797,79v-3.696c-0.142-4.051-3.528-7.238-7.591-7.077c-4.05,0.142-7.218,3.54-7.077,7.589V79	H86.797z"/><path fill="#1f212b" d="M16.224,64c-0.265,0-0.522-0.105-0.713-0.299c-1.725-1.754-2.595-4.14-2.387-6.546c0,0,0,0,0,0	l2.981-34.397c0.396-4.565,4.417-7.97,9.022-7.587c4.584,0.398,7.987,4.449,7.59,9.028l-0.807,9.317	c-0.025,0.294-0.18,0.563-0.422,0.732c-7.41,5.2-11.078,13.173-11.968,18.42L17.2,63.215c-0.079,0.358-0.348,0.645-0.7,0.746	C16.409,63.987,16.316,64,16.224,64z M15.116,57.327c-0.098,1.13,0.12,2.256,0.613,3.267l1.829-8.308	c0.93-5.489,4.741-13.846,12.4-19.403l0.767-8.857c0.302-3.481-2.285-6.56-5.768-6.863c-3.464-0.287-6.56,2.297-6.86,5.768	L15.116,57.327L15.116,57.327z"/><path fill="#1f212b" d="M17.022,79.998c-0.302,0-0.588-0.137-0.778-0.372c-0.19-0.236-0.264-0.545-0.199-0.841l4.47-20.532	c0.072-0.331,0.308-0.603,0.625-0.723c0.315-0.12,0.673-0.071,0.945,0.13c0.941,0.693,1.936,1.361,2.955,1.985	c8.369,5.124,19.688,8.333,31.87,9.036c4.425,0.256,8.74,0.181,13.021-0.234c0.382-0.038,0.759,0.151,0.955,0.483	c0.198,0.332,0.188,0.749-0.028,1.07c-1.181,1.757-1.766,3.8-1.692,5.908l0.001,3.09c0,0.552-0.447,1-1,1	c-8.608,0-16.101-0.005-22.771-0.009c-11.363-0.008-20.335-0.013-28.37,0.009C17.024,79.998,17.023,79.998,17.022,79.998z M30.783,77.982c4.443,0,9.263,0.003,14.613,0.006c6.409,0.004,13.58,0.008,21.77,0.009v-2.055	c-0.065-1.846,0.302-3.668,1.069-5.344c-3.778,0.28-7.563,0.304-11.44,0.08c-12.506-0.723-24.153-4.035-32.8-9.327	c-0.627-0.384-1.244-0.784-1.848-1.195l-3.883,17.839C22.153,77.985,26.274,77.982,30.783,77.982z"/><path fill="#1f212b" d="M62.113,66.625c-1.606,0-3.227-0.046-4.854-0.139c-11.912-0.688-22.954-3.812-31.096-8.795	c-1.413-0.866-2.777-1.84-4.171-2.979c-0.292-0.239-0.425-0.622-0.344-0.99l0.153-0.695c0.044-0.191,4.338-18.216,21.073-21.852	v-9.349c0-1.563,1.271-2.834,2.834-2.834c1.563,0,2.835,1.271,2.835,2.834v8.499c0.953-0.038,1.804,0.01,2.809,0.067	c0.395,0.022,0.815,0.046,1.28,0.067c0.477,0.022,11.442,0.61,20.072,7.715l6.678-5.864c1.176-1.029,2.97-0.912,3.999,0.257	c1.032,1.176,0.916,2.97-0.258,4.001l0,0l-6.433,5.647c4.184,5.26,6.208,11.981,6.021,19.995l-0.013,0.865	c-0.007,0.441-0.302,0.826-0.726,0.947C75.943,65.74,69.157,66.625,62.113,66.625z M23.735,53.547	c1.157,0.918,2.299,1.719,3.473,2.438c7.864,4.813,18.577,7.834,30.165,8.503c8.262,0.471,16.311-0.288,23.337-2.192l0.002-0.125	c0.185-7.905-1.891-14.435-6.168-19.417c-0.356-0.416-0.313-1.042,0.099-1.403l7.161-6.287c0.346-0.303,0.38-0.832,0.076-1.177	c-0.301-0.344-0.832-0.378-1.179-0.074l-7.325,6.433c-0.379,0.331-0.942,0.332-1.319,0c-8.182-7.17-19.402-7.785-19.515-7.79	c-0.472-0.021-0.9-0.045-1.303-0.068c-1.331-0.074-2.295-0.129-3.591,0.006c-0.281,0.027-0.563-0.062-0.773-0.251	c-0.211-0.189-0.331-0.46-0.331-0.743v-9.574c0-0.46-0.375-0.834-0.835-0.834s-0.834,0.375-0.834,0.834v10.168	c0,0.482-0.344,0.896-0.818,0.983c-16.104,2.973-20.264,20.313-20.304,20.488L23.735,53.547z"/><path fill="#1f212b" d="M77.229,60.815c-0.268,0-0.489-0.211-0.5-0.48c-0.061-1.543-0.229-3.043-0.501-4.457	c-0.052-0.271,0.126-0.533,0.396-0.585c0.272-0.05,0.533,0.125,0.586,0.397c0.281,1.463,0.455,3.013,0.519,4.606	c0.011,0.276-0.204,0.508-0.48,0.519C77.241,60.815,77.234,60.815,77.229,60.815z"/><path fill="#1f212b" d="M76.154,52.593c-0.21,0-0.405-0.133-0.475-0.343c-0.881-2.664-2.211-5.044-3.954-7.074l-0.991-1.154	l-1.127-0.981c-3.361-2.946-7.672-5.068-12.466-6.137c-0.27-0.06-0.439-0.327-0.38-0.597c0.06-0.268,0.325-0.438,0.597-0.379	c4.958,1.105,9.422,3.305,12.908,6.361l1.178,1.032l1.04,1.204c1.828,2.129,3.223,4.623,4.145,7.412	c0.087,0.262-0.056,0.545-0.317,0.631C76.259,52.585,76.206,52.593,76.154,52.593z"/><path fill="#1f212b" d="M55.321,36.546c-0.026,0-0.053-0.002-0.079-0.006c-0.231-0.037-0.462-0.071-0.693-0.103l-0.519-0.067	c-0.274-0.033-0.47-0.283-0.436-0.557s0.297-0.473,0.557-0.436l0.533,0.069c0.238,0.033,0.477,0.069,0.714,0.106	c0.272,0.043,0.459,0.299,0.416,0.572C55.775,36.37,55.563,36.546,55.321,36.546z"/><path fill="#1f212b" d="M52,36.188c-0.009,0-0.019,0-0.028-0.001c-0.984-0.055-1.979-0.064-2.954-0.027	c-0.318,0.034-0.509-0.205-0.52-0.48c-0.01-0.276,0.205-0.508,0.48-0.519c1.007-0.039,2.032-0.03,3.05,0.028	c0.275,0.015,0.486,0.251,0.471,0.527C52.484,35.982,52.264,36.188,52,36.188z"/><path fill="#1f212b" d="M34.644,49.802c-0.756,0-1.439-0.237-1.98-0.698c-1.506-1.283-1.368-3.925,0.306-5.892	c0.794-0.931,1.813-1.581,2.873-1.828c1.116-0.258,2.143-0.051,2.895,0.589c1.506,1.283,1.368,3.925-0.306,5.891	c-0.793,0.932-1.813,1.581-2.873,1.829C35.244,49.766,34.938,49.802,34.644,49.802z M36.75,42.277c-0.218,0-0.445,0.027-0.681,0.082	c-0.853,0.199-1.684,0.733-2.339,1.503c-1.317,1.546-1.505,3.557-0.419,4.481c0.504,0.43,1.222,0.564,2.019,0.376	c0.853-0.199,1.684-0.733,2.339-1.503c1.317-1.546,1.505-3.556,0.419-4.481C37.732,42.432,37.271,42.277,36.75,42.277z"/><path fill="#1f212b" d="M60.337,58.788c-2.271,0-4.12-2.282-4.12-5.086c0-2.804,1.849-5.086,4.12-5.086	c2.272,0,4.121,2.282,4.121,5.086C64.458,56.506,62.609,58.788,60.337,58.788z M60.337,49.615c-1.721,0-3.12,1.833-3.12,4.086	c0,2.253,1.399,4.086,3.12,4.086s3.121-1.833,3.121-4.086C63.458,51.448,62.058,49.615,60.337,49.615z"/><path fill="#1f212b" d="M86.797,80H72.13c-0.553,0-1-0.448-1-1v-3.184c-0.077-2.19,0.716-4.313,2.235-5.941	c1.519-1.629,3.58-2.569,5.806-2.647c2.206-0.084,4.331,0.695,5.96,2.206c1.64,1.521,2.587,3.594,2.665,5.835L87.797,79	C87.797,79.552,87.35,80,86.797,80z M73.13,78h12.667v-2.696c-0.06-1.67-0.779-3.247-2.026-4.404	c-1.234-1.146-2.855-1.744-4.524-1.673c-1.696,0.06-3.264,0.774-4.419,2.012c-1.154,1.238-1.757,2.852-1.698,4.542L73.13,78z"/><path fill="#1f212b" d="M22.582,75.073c-0.032,0-0.063-0.003-0.096-0.009c-0.271-0.052-0.448-0.314-0.396-0.586l1.169-6.073	c0.052-0.272,0.315-0.445,0.586-0.396c0.271,0.052,0.448,0.314,0.396,0.586l-1.169,6.073C23.026,74.907,22.816,75.073,22.582,75.073	z"/><path fill="#1f212b" d="M24.163,67.171c-0.033,0-0.065-0.003-0.099-0.01c-0.271-0.054-0.446-0.317-0.393-0.588l0.351-1.756	c0.055-0.271,0.322-0.447,0.588-0.393c0.271,0.054,0.446,0.317,0.393,0.588l-0.351,1.756C24.604,67.006,24.396,67.171,24.163,67.171	z"/></svg>