<svg xmlns="http://www.w3.org/2000/svg"  viewBox="0 0 100 100" width="100px" height="100px"><path fill="#78a2d2" d="M80.89,27.501c-10.11-7.714-19.728-7.5-19.728-7.5c-1.74,1.926-2.355,3.663-2.801,4.595	C55.728,24.21,52.946,24,50,24c-2.75,0-5.356,0.183-7.833,0.521c-0.313,0.043-1.142-2.641-3.33-4.52c0,0-9.618-0.214-19.728,7.5	c0,0-10.11,18.643-10.11,41.642c0,0,6.485,10.357,22,10.857l3-5c-1.956,0.378-5.068-2.292-4-5.848C34.856,71.1,41.716,73,50,73	c8.274,0,15.139-1.913,19.994-3.858C71.145,72.595,68.131,75.238,66,75l3,5c15.515-0.5,22-10.857,22-10.857	C91,46.143,80.89,27.501,80.89,27.501z M37.5,64c-4.687,0-8.5-4.479-8.5-9.983s3.813-9.983,8.5-9.983s8.5,4.479,8.5,9.983	S42.187,64,37.5,64z M62.5,64c-4.687,0-8.5-4.485-8.5-9.999s3.813-9.999,8.5-9.999s8.5,4.485,8.5,9.999S67.187,64,62.5,64z"/><ellipse cx="62.5" cy="54.001" fill="none" stroke="#000" stroke-linejoin="round" stroke-miterlimit="10" stroke-width="2" rx="7.5" ry="8.999"/><ellipse cx="37.5" cy="54.017" fill="none" stroke="#000" stroke-linejoin="round" stroke-miterlimit="10" stroke-width="2" rx="7.5" ry="8.983"/><path d="M69,81c-0.351,0-0.677-0.184-0.857-0.485l-3-5c-0.156-0.26-0.186-0.577-0.08-0.861c0.104-0.285,0.333-0.506,0.621-0.602 c0.118-0.039,0.288-0.084,0.496-0.137c0.873-0.223,2.498-0.637,3.061-1.749c0.23-0.456,0.272-1.027,0.125-1.706 C63.157,72.81,56.647,74,50,74c-6.681,0-13.198-1.189-19.391-3.537c-0.161,0.674-0.13,1.241,0.095,1.693 c0.552,1.111,2.209,1.529,3.1,1.754c0.216,0.054,0.392,0.1,0.512,0.14c0.288,0.096,0.517,0.317,0.621,0.602 c0.105,0.284,0.076,0.601-0.08,0.861l-3,5c-0.187,0.311-0.534,0.491-0.89,0.485C15.102,80.488,8.428,70.115,8.151,69.674 c-0.1-0.159-0.152-0.343-0.152-0.531c0-22.987,10.129-41.93,10.231-42.119c0.067-0.125,0.16-0.233,0.272-0.318 c10.269-7.836,19.946-7.715,20.356-7.705c0.231,0.005,0.453,0.09,0.629,0.241c1.564,1.344,2.467,3.008,3.006,4.001 c0.041,0.076,0.079,0.146,0.114,0.211c4.919-0.62,10.241-0.604,15.151,0.047c0.468-1.041,1.18-2.533,2.66-4.172 c0.185-0.204,0.445-0.323,0.72-0.329c0.409-0.009,10.087-0.132,20.356,7.705c0.112,0.085,0.205,0.194,0.272,0.318 C81.871,27.213,92,46.155,92,69.143c0,0.188-0.053,0.372-0.152,0.531C91.571,70.115,84.897,80.488,69.032,81 C69.021,81,69.011,81,69,81z M67.535,75.615l2.017,3.361c13.104-0.65,19.41-8.686,20.447-10.142 c-0.085-21.142-8.86-38.687-9.891-40.671c-8.445-6.369-16.577-7.077-18.499-7.154c-1.162,1.379-1.728,2.645-2.111,3.504 c-0.085,0.19-0.162,0.362-0.234,0.514c-0.189,0.395-0.61,0.622-1.048,0.558c-5.127-0.751-10.766-0.777-15.913-0.073 c-0.807,0.115-1.136-0.52-1.566-1.315c-0.438-0.809-1.151-2.123-2.277-3.19c-1.788,0.062-10.017,0.708-18.568,7.156 C18.861,30.15,10.085,47.715,10,68.835c1.037,1.456,7.343,9.492,20.447,10.142l2.015-3.358c-1.191-0.361-2.792-1.049-3.549-2.572 c-0.592-1.192-0.536-2.634,0.166-4.286c0.212-0.5,0.788-0.739,1.292-0.537C36.617,70.729,43.222,72,50,72 c6.75,0,13.352-1.274,19.622-3.787c0.511-0.206,1.093,0.042,1.299,0.554c0.672,1.663,0.707,3.11,0.104,4.302 C70.264,74.571,68.704,75.254,67.535,75.615z"/><path d="M42.877,29.472c-0.246,0-0.46-0.182-0.494-0.433c-0.037-0.274,0.154-0.526,0.428-0.563 c3.178-0.432,6.571-0.573,9.849-0.411c0.276,0.014,0.488,0.249,0.475,0.524c-0.013,0.276-0.239,0.487-0.523,0.475 c-3.217-0.158-6.547-0.02-9.665,0.403C42.923,29.47,42.899,29.472,42.877,29.472z"/><path d="M57.868,29.592c-0.025,0-0.051-0.002-0.077-0.006c-0.966-0.148-1.95-0.27-2.926-0.361c-0.274-0.026-0.477-0.27-0.451-0.545 c0.026-0.275,0.278-0.478,0.545-0.451c0.994,0.094,1.999,0.218,2.984,0.369c0.272,0.042,0.46,0.297,0.418,0.57 C58.323,29.416,58.11,29.592,57.868,29.592z"/></svg>