<svg xmlns="http://www.w3.org/2000/svg"  viewBox="0 0 100 100" width="100px" height="100px"><path fill="#e3e2e3" d="M70,82H31c-6.6,0-12-5.4-12-12V31c0-6.6,5.4-12,12-12h39c6.6,0,12,5.4,12,12v39 C82,76.6,76.6,82,70,82z"/><path fill="#39c1d7" d="M67,36H33c-0.552,0-1-0.448-1-1l0,0c0-0.552,0.448-1,1-1h34c0.552,0,1,0.448,1,1l0,0 C68,35.552,67.552,36,67,36z"/><path fill="#1f212b" d="M67,34c0.552,0,1,0.448,1,1s-0.448,1-1,1H33c-0.552,0-1-0.448-1-1s0.448-1,1-1H67 M67,33H33 c-1.103,0-2,0.897-2,2s0.897,2,2,2h34c1.103,0,2-0.897,2-2S68.103,33,67,33L67,33z"/><path fill="#39c1d7" d="M67,46H33c-0.552,0-1-0.448-1-1l0,0c0-0.552,0.448-1,1-1h34c0.552,0,1,0.448,1,1l0,0 C68,45.552,67.552,46,67,46z"/><path fill="#1f212b" d="M67,44c0.552,0,1,0.448,1,1s-0.448,1-1,1H33c-0.552,0-1-0.448-1-1s0.448-1,1-1H67 M67,43H33 c-1.103,0-2,0.897-2,2s0.897,2,2,2h34c1.103,0,2-0.897,2-2S68.103,43,67,43L67,43z"/><path fill="#39c1d7" d="M66,56H33c-0.552,0-1-0.448-1-1l0,0c0-0.552,0.448-1,1-1h33c0.552,0,1,0.448,1,1l0,0 C67,55.552,66.552,56,66,56z"/><path fill="#1f212b" d="M66,54c0.552,0,1,0.448,1,1s-0.448,1-1,1H33c-0.552,0-1-0.448-1-1s0.448-1,1-1H66 M66,53H33 c-1.103,0-2,0.897-2,2s0.897,2,2,2h33c1.103,0,2-0.897,2-2S67.103,53,66,53L66,53z"/><path fill="#39c1d7" d="M51.818,70.01c-1.941,0-3.75-0.869-4.963-2.385l-0.769-0.96c-0.737-0.922-1.789-1.494-2.963-1.613 c-1.178-0.116-2.319,0.232-3.226,0.987l-0.588,0.489C38.172,67.477,36.727,68,35.243,68H33c-0.553,0-1-0.448-1-1s0.447-1,1-1h2.243 c1.017,0,2.007-0.358,2.787-1.009l0.588-0.489c1.322-1.102,3.002-1.617,4.706-1.44c1.714,0.173,3.249,1.009,4.324,2.353l0.769,0.96 c0.831,1.039,2.071,1.635,3.401,1.635s2.57-0.596,3.4-1.634c0.346-0.431,0.975-0.501,1.406-0.156 c0.431,0.345,0.501,0.974,0.156,1.405C55.568,69.141,53.76,70.01,51.818,70.01z"/><path fill="#1f212b" d="M42.668,63.028c0.218,0,0.437,0.011,0.657,0.034c1.714,0.173,3.249,1.009,4.324,2.353l0.769,0.96 c0.831,1.039,2.071,1.635,3.401,1.635s2.57-0.596,3.4-1.634C55.417,66.129,55.708,66,56.001,66c0.219,0,0.439,0.072,0.624,0.219 c0.431,0.345,0.501,0.974,0.156,1.405c-1.213,1.516-3.021,2.385-4.963,2.385s-3.75-0.869-4.963-2.385l-0.769-0.96 c-0.737-0.922-1.789-1.494-2.963-1.613c-0.149-0.015-0.296-0.022-0.443-0.022c-1.018,0-1.99,0.349-2.782,1.009l-0.588,0.489 C38.172,67.477,36.727,68,35.243,68H33c-0.553,0-1-0.448-1-1s0.447-1,1-1h2.243c1.017,0,2.007-0.358,2.787-1.009l0.588-0.489 C39.77,63.542,41.193,63.028,42.668,63.028 M42.668,62.028c-1.704,0-3.37,0.606-4.69,1.706l-0.587,0.488 C36.789,64.724,36.027,65,35.243,65H33c-1.103,0-2,0.897-2,2s0.897,2,2,2h2.243c1.718,0,3.39-0.605,4.708-1.705l0.587-0.488 c0.611-0.509,1.352-0.778,2.143-0.778c0.114,0,0.23,0.006,0.345,0.017c0.902,0.091,1.712,0.532,2.28,1.242l0.769,0.961 c1.403,1.754,3.497,2.76,5.744,2.76s4.34-1.006,5.744-2.761c0.688-0.861,0.548-2.122-0.312-2.811 C56.896,65.156,56.453,65,56.001,65c-0.611,0-1.18,0.273-1.562,0.749c-0.641,0.801-1.595,1.26-2.621,1.26 c-1.025,0-1.98-0.459-2.62-1.259l-0.769-0.961c-1.245-1.556-3.022-2.523-5.005-2.723C43.175,62.041,42.92,62.028,42.668,62.028 L42.668,62.028z"/><path fill="#1f212b" d="M56.999,67.5c-0.246,0-0.496-0.061-0.727-0.188c-0.725-0.402-0.986-1.315-0.584-2.039l2.909-5.248 c0.401-0.724,1.314-0.986,2.039-0.585c0.725,0.402,0.986,1.315,0.584,2.04l-2.909,5.248C58.038,67.221,57.526,67.5,56.999,67.5z"/><path fill="#444445" d="M82,31v2.14c-0.73,1.4-1.5,2.83-2.3,4.28c-9.21,16.62-18.67,28.53-21.73,26.83 c-3.06-1.7,2.02-16.03,11.24-32.65c2.22-4,4.47-7.73,6.65-11.06C79.52,22.6,82,26.52,82,31z"/><path fill="#d1dae7" d="M82,31v2.1c-0.45,0.86-0.91,1.74-1.38,2.62c-1.36-0.13-3.12-0.66-5.33-1.89l-0.39-0.21 c-2.32-1.33-3.81-2.59-4.71-3.75c1.9-3.31,3.83-6.44,5.72-9.3C79.54,22.64,82,26.54,82,31z"/><path fill="#444445" d="M82,31v1.87c-1.47,0.08-3.5-0.63-5.61-1.85c-3.38-1.96-5.69-4.17-4.67-6.02 c0.97-1.75,1.96-3.44,2.95-5.05C78.97,21.78,82,26.05,82,31z"/><path fill="#1f212b" d="M58.592,64.902c-0.315,0-0.604-0.069-0.864-0.213c-3.906-2.166,2.985-18.793,11.04-33.326 c0.8-1.442,1.627-2.891,2.463-4.311c-0.354-0.819-0.335-1.591,0.057-2.297c0.911-1.644,1.857-3.264,2.811-4.813l0.852,0.523 c-0.945,1.538-1.883,3.144-2.787,4.775c-0.264,0.475-0.238,1,0.077,1.607l0.128,0.246l-0.141,0.239 c-0.877,1.484-1.746,3.003-2.584,4.515C59.611,49.945,55.898,62.531,58.212,63.813c2.313,1.28,11.021-8.536,21.052-26.633 c0.847-1.528,1.669-3.061,2.445-4.555l0.887,0.461c-0.78,1.502-1.606,3.042-2.457,4.578C72.619,51.23,63.014,64.902,58.592,64.902z"/><path fill="#1f212b" d="M81.774,33.376c-1.491,0-3.479-0.676-5.635-1.923c-5.354-3.104-5.597-5.354-4.857-6.694 c0.954-1.721,1.95-3.426,2.962-5.07l0.226-0.367l0.396,0.168C79.503,21.464,82.5,25.982,82.5,31v2.344l-0.473,0.025 C81.944,33.374,81.86,33.376,81.774,33.376z M74.867,20.586c-0.925,1.516-1.836,3.08-2.71,4.657 c-0.729,1.321,0.905,3.27,4.483,5.345c1.845,1.066,3.58,1.698,4.859,1.78V31C81.5,26.527,78.91,22.485,74.867,20.586z"/><path fill="#1f212b" d="M80.577,36.214c-1.621-0.153-3.481-0.808-5.531-1.943l-0.385-0.213 c-2.208-1.267-3.843-2.569-4.867-3.875l0.787-0.617c0.944,1.204,2.482,2.422,4.571,3.621l0.378,0.209 c1.929,1.069,3.658,1.683,5.141,1.823L80.577,36.214z"/><path fill="#1f212b" d="M70,83H31c-7.168,0-13-5.832-13-13V31c0-7.168,5.832-13,13-13h39c7.168,0,13,5.832,13,13v39 C83,77.168,77.168,83,70,83z M31,20c-6.065,0-11,4.935-11,11v39c0,6.065,4.935,11,11,11h39c6.065,0,11-4.935,11-11V31 c0-6.065-4.935-11-11-11H31z"/><path d="M69.5,78h-7c-0.276,0-0.5-0.224-0.5-0.5s0.224-0.5,0.5-0.5h7c4.136,0,7.5-3.364,7.5-7.5v-20c0-0.276,0.224-0.5,0.5-0.5 s0.5,0.224,0.5,0.5v20C78,74.187,74.187,78,69.5,78z"/><path d="M58.5,78h-27c-4.687,0-8.5-3.813-8.5-8.5v-19c0-0.276,0.224-0.5,0.5-0.5s0.5,0.224,0.5,0.5v19c0,4.136,3.364,7.5,7.5,7.5 h27c0.276,0,0.5,0.224,0.5,0.5S58.776,78,58.5,78z"/><path d="M23.5,48c-0.276,0-0.5-0.224-0.5-0.5v-6c0-0.276,0.224-0.5,0.5-0.5s0.5,0.224,0.5,0.5v6C24,47.776,23.776,48,23.5,48z"/><path d="M23.5,36c-0.276,0-0.5-0.224-0.5-0.5v-4c0-4.687,3.813-8.5,8.5-8.5h31c0.276,0,0.5,0.224,0.5,0.5S62.776,24,62.5,24h-31 c-4.136,0-7.5,3.364-7.5,7.5v4C24,35.776,23.776,36,23.5,36z"/><path d="M68.5,24h-3c-0.276,0-0.5-0.224-0.5-0.5s0.224-0.5,0.5-0.5h3c0.276,0,0.5,0.224,0.5,0.5S68.776,24,68.5,24z"/></svg>