<svg xmlns="http://www.w3.org/2000/svg"  viewBox="0 0 100 100" width="100px" height="100px"><path fill="#fed5b3" d="M31.803,31.713l45.867-1.872C79.486,29.766,81,31.219,81,33.038v45.861 c0,1.717-1.354,3.127-3.069,3.197l-45.867,1.872c-1.817,0.074-3.331-1.379-3.331-3.197V34.91 C28.733,33.193,30.088,31.783,31.803,31.713z"/><path fill="#1f212b" d="M31.931,84.972c-2.314,0-4.197-1.885-4.197-4.2V34.91c0-2.262,1.77-4.105,4.029-4.196l46.041-1.876 c2.314,0,4.197,1.885,4.197,4.2v45.861c0,2.261-1.77,4.104-4.028,4.196L31.931,84.972z M77.803,30.838l-45.959,1.874 c-1.184,0.048-2.11,1.014-2.11,2.198v45.861c0,1.213,0.986,2.2,2.197,2.2l0.092-0.002l45.867-1.872 c1.184-0.049,2.11-1.015,2.11-2.198V33.038C80,31.825,79.014,30.838,77.803,30.838z"/><path fill="#fae8e6" d="M19.49,18.617l42.287-1.799c0.707-0.03,1.404,0.175,1.981,0.583l14.679,10.362 c0.832,0.587,0.446,1.896-0.572,1.937L29.53,31.672c-0.514,0.021-1.018-0.144-1.42-0.466l-10.097-8.077 C16.185,21.666,17.149,18.717,19.49,18.617z"/><path fill="#1f212b" d="M29.441,32.674c-0.707,0-1.402-0.244-1.956-0.687L17.389,23.91c-1.162-0.93-1.614-2.444-1.151-3.858 c0.462-1.415,1.722-2.37,3.209-2.434l42.462-1.804c0.875,0,1.713,0.267,2.425,0.77l14.679,10.36c0.734,0.52,1.044,1.412,0.79,2.273 c-0.254,0.862-0.999,1.443-1.897,1.48l-48.335,1.973C29.558,32.672,29.455,32.674,29.441,32.674z M61.91,17.814l-42.377,1.802 c-0.986,0.042-1.316,0.819-1.394,1.057s-0.271,1.059,0.5,1.675l10.097,8.077c0.201,0.16,0.452,0.249,0.707,0.249v1l0.047-1.001 L77.824,28.7l0.613-0.938l-0.577,0.817L63.181,18.218C62.808,17.954,62.369,17.814,61.91,17.814z"/><path fill="#f69272" d="M27.951,31.198L17,22.238v45.168c0,0.454,0.145,0.896,0.413,1.262l9.393,12.809 c0.61,0.831,1.927,0.4,1.927-0.631V32.849C28.733,32.209,28.446,31.603,27.951,31.198z"/><path fill="#1f212b" d="M27.656,82.915L27.656,82.915c-0.658,0-1.262-0.309-1.656-0.848L16.607,69.26 C16.21,68.718,16,68.077,16,67.406V22.238c0-0.387,0.223-0.738,0.572-0.903c0.347-0.168,0.762-0.115,1.062,0.129l10.951,8.959 c0.73,0.598,1.149,1.481,1.149,2.426v47.998c0,0.588-0.233,1.126-0.657,1.516C28.689,82.719,28.185,82.915,27.656,82.915z M18,24.349v43.058c0,0.243,0.076,0.475,0.22,0.67l9.437,12.839c0.034,0,0.077-0.034,0.077-0.068V32.849 c0-0.342-0.151-0.661-0.416-0.877L18,24.349z"/><path fill="#f69272" d="M63.4,39.748c-1.493,0.073-2.667,1.305-2.667,2.8v0l3.673,0.53l0.093-0.016v18.55L50.861,40.351 l-0.71,0.035v-0.035l-2.206,0.144l-6.926,0.343l0.067,0.106l-0.312,0.02c-1.561,0.102-2.775,1.398-2.775,2.963v0.419l3.535-0.231 v26.971l-1.6,0.326c-1.504,0.075-2.685,1.316-2.685,2.821v0.138L48.4,73.818c1.581-0.078,2.823-1.383,2.823-2.966l-4.361-0.851 l-0.329,0.067V49.587l11.788,18.703l1.729,3.117c1.264,2.279,4.054,3.222,6.441,2.178l2.776-1.214l-0.081-0.253H69.5V42.201 c1.662-0.083,2.967-0.395,2.967-2.679v-0.218L63.4,39.748z"/><path fill="#1f212b" d="M37.249,74.87c-0.128,0-0.251-0.049-0.345-0.138c-0.099-0.095-0.155-0.226-0.155-0.362v-0.138 c0-1.774,1.388-3.233,3.161-3.32l1.124-0.233v-26.03l-3.002,0.196c-0.136,0.014-0.274-0.039-0.375-0.134 c-0.101-0.095-0.158-0.227-0.158-0.365v-0.419c0-1.802,1.393-3.31,3.183-3.457c0.084-0.078,0.195-0.125,0.313-0.131l9.124-0.487 c0.066-0.005,0.132,0.005,0.193,0.025l0.525-0.025c0.177-0.021,0.349,0.078,0.446,0.229L64,59.907V43.525l-3.338-0.481 c-0.246-0.036-0.429-0.246-0.429-0.495c0-1.765,1.38-3.214,3.142-3.3l9.067-0.443c0.138-0.01,0.27,0.042,0.369,0.137 s0.155,0.226,0.155,0.362v0.218c0,2.644-1.731,3.049-2.967,3.149v29.446c0,0.194-0.11,0.362-0.272,0.445 c-0.048,0.115-0.139,0.212-0.261,0.266l-2.775,1.214c-0.707,0.31-1.455,0.467-2.223,0.467c-2.018,0-3.878-1.096-4.856-2.86 l-1.729-3.116L47.033,51.319v18.205l4.286,0.836c0.235,0.046,0.404,0.252,0.404,0.491c0,1.852-1.449,3.374-3.298,3.465 l-11.152,0.553C37.265,74.87,37.257,74.87,37.249,74.87z M41.533,43.614c0.126,0,0.249,0.048,0.342,0.135 c0.101,0.095,0.158,0.227,0.158,0.365v26.972c0,0.237-0.167,0.442-0.4,0.49l-1.6,0.325c-1.174,0.063-2.073,0.883-2.252,1.941 l10.594-0.524c1.179-0.059,2.128-0.933,2.314-2.062l-3.825-0.746l-0.231,0.048c-0.147,0.03-0.3-0.008-0.416-0.103 c-0.117-0.096-0.184-0.237-0.184-0.388v-20.48c0-0.223,0.147-0.419,0.361-0.48c0.214-0.059,0.443,0.026,0.562,0.214 l11.788,18.703l1.743,3.141c0.802,1.446,2.328,2.345,3.982,2.345c0.629,0,1.242-0.129,1.822-0.383l2.396-1.048 c0.007-0.091,0.04-0.18,0.095-0.256c0.056-0.077,0.132-0.135,0.218-0.169V42.201c0-0.267,0.209-0.486,0.475-0.499 c1.617-0.081,2.394-0.382,2.483-1.872l-8.534,0.417c-1.083,0.054-1.959,0.845-2.151,1.874l3.164,0.457 c0.122,0.003,0.253,0.038,0.337,0.109C64.888,42.782,65,42.915,65,43.063v18.551c0,0.222-0.146,0.417-0.359,0.479 c-0.211,0.063-0.441-0.022-0.562-0.21L50.597,40.864l-0.421,0.021c-0.063,0.007-0.121-0.005-0.178-0.023l-2.02,0.133 l-6.562,0.324c-0.082,0.072-0.186,0.116-0.297,0.124l-0.313,0.021c-1.256,0.082-2.248,1.104-2.306,2.349l3-0.196 C41.511,43.614,41.522,43.614,41.533,43.614z"/><path fill="#1f212b" d="M81,46.537c-0.552,0-1-0.447-1-1V30.08L65.166,19.597c-0.451-0.318-0.558-0.942-0.24-1.394 c0.319-0.45,0.943-0.559,1.394-0.239l15.257,10.782C81.842,28.934,82,29.237,82,29.563v15.975C82,46.09,81.552,46.537,81,46.537z"/><g><path fill="#1f212b" d="M28.712,85.05c-0.318,0-0.619-0.151-0.807-0.41l-5.651-7.731c-0.326-0.445-0.229-1.071,0.217-1.397 c0.447-0.325,1.072-0.229,1.397,0.218l5.338,7.303l8.242-0.293c0.57-0.025,1.016,0.412,1.035,0.964s-0.412,1.015-0.964,1.034 l-8.772,0.313C28.736,85.05,28.724,85.05,28.712,85.05z"/></g><g><path fill="#fae8e6" d="M61.595,21.096l6.692,4.724l-38.134,1.556l-5.866-4.693L61.595,21.096"/><path fill="#1f212b" d="M30.153,27.876c-0.113,0-0.224-0.038-0.313-0.109l-5.866-4.692 c-0.163-0.131-0.228-0.348-0.163-0.546c0.064-0.198,0.246-0.335,0.454-0.345l3.127-0.133c0.263,0.012,0.509,0.202,0.521,0.479 c0.012,0.276-0.203,0.51-0.479,0.521l-1.794,0.076l4.679,3.742l9.163-0.375c0.26,0.006,0.509,0.204,0.52,0.479 c0.011,0.276-0.203,0.509-0.479,0.521l-9.35,0.382C30.167,27.876,30.16,27.876,30.153,27.876z M46.497,27.209 c-0.267,0-0.488-0.211-0.499-0.479c-0.011-0.276,0.203-0.509,0.479-0.521l1.998-0.081c0.291-0.019,0.509,0.203,0.52,0.479 s-0.203,0.509-0.479,0.521l-1.999,0.081C46.51,27.209,46.503,27.209,46.497,27.209z M51.493,27.006 c-0.267,0-0.488-0.211-0.499-0.479c-0.011-0.276,0.203-0.509,0.479-0.521l15.325-0.625l-5.352-3.778l-1.04,0.045 c-0.266,0.014-0.509-0.202-0.521-0.479s0.202-0.509,0.478-0.521l1.206-0.051c0.053-0.003,0.107,0.003,0.16,0.018h0h0 c0,0,0,0,0.001,0c0,0,0,0,0,0c0.056,0.017,0.109,0.042,0.156,0.076l6.688,4.722c0.175,0.123,0.251,0.345,0.191,0.55 s-0.245,0.35-0.459,0.358l-16.794,0.686C51.507,27.006,51.5,27.006,51.493,27.006z M32.41,22.838c-0.266,0-0.488-0.21-0.499-0.479 c-0.012-0.276,0.202-0.51,0.478-0.521l24.978-1.063c0.277,0.012,0.51,0.202,0.521,0.479c0.012,0.276-0.202,0.51-0.478,0.521 l-24.978,1.063C32.424,22.838,32.417,22.838,32.41,22.838z"/></g><g><path fill="#f69272" d="M21.267,31.242l3.2,2.618v37.212l-3.2-4.364V31.242"/><path fill="#1f212b" d="M23.489,70.238c-0.154,0-0.306-0.07-0.404-0.204l-1.183-1.613c-0.163-0.223-0.115-0.536,0.108-0.699 c0.222-0.165,0.535-0.116,0.699,0.107l1.183,1.613c0.034,0.047,0.059,0.097,0.075,0.148V34.097l-2.2-1.801v6.17 c0,0.276-0.224,0.5-0.5,0.5s-0.5-0.224-0.5-0.5v-7.222c0-0.033,0.003-0.066,0.009-0.099v-0.001c0,0,0,0.001,0-0.001 c0-0.001,0-0.001,0-0.001v-0.001l0,0c0.018-0.087,0.058-0.165,0.114-0.229c0,0,0,0,0,0l0,0c0.046-0.054,0.102-0.094,0.162-0.123 c0.059-0.027,0.124-0.044,0.192-0.048c0.085-0.001,0.177,0.016,0.259,0.06l0,0c0,0,0.001,0,0.001,0.001c0,0,0,0,0,0c0,0,0,0,0,0 c0,0,0,0.001,0.001,0.001l0,0c0.028,0.016,0.055,0.033,0.079,0.054l3.197,2.616c0.116,0.095,0.184,0.236,0.184,0.387v35.865 c0,0.276-0.224,0.5-0.5,0.5c-0.238,0-0.437-0.166-0.488-0.389c-0.023,0.118-0.089,0.229-0.195,0.306 C23.695,70.207,23.592,70.238,23.489,70.238z M21.267,63.966c-0.276,0-0.5-0.224-0.5-0.5v-20c0-0.276,0.224-0.5,0.5-0.5 s0.5,0.224,0.5,0.5v20C21.767,63.742,21.543,63.966,21.267,63.966z"/></g><g><path fill="#1f212b" d="M49.279,78.418c-0.267,0-0.488-0.211-0.499-0.479c-0.011-0.276,0.204-0.509,0.479-0.521 l19.984-0.808c0.264,0.007,0.508,0.204,0.52,0.479c0.011,0.276-0.204,0.509-0.479,0.521L49.3,78.418 C49.293,78.418,49.286,78.418,49.279,78.418z M72.261,77.489c-0.267,0-0.488-0.211-0.499-0.479 c-0.011-0.276,0.203-0.509,0.479-0.521l1.999-0.081c0.269-0.025,0.508,0.204,0.52,0.479c0.011,0.276-0.203,0.509-0.479,0.521 l-1.999,0.081C72.274,77.489,72.268,77.489,72.261,77.489z M75.667,75.76c-0.276,0-0.5-0.224-0.5-0.5v-40 c0-0.276,0.224-0.5,0.5-0.5s0.5,0.224,0.5,0.5v40C76.167,75.536,75.943,75.76,75.667,75.76z M33.667,74.675 c-0.276,0-0.5-0.224-0.5-0.5V36.958c0-0.269,0.212-0.489,0.48-0.5l2.781-0.112c0.268-0.002,0.508,0.204,0.52,0.479 c0.011,0.276-0.204,0.509-0.479,0.521l-2.301,0.093v36.736C34.167,74.451,33.943,74.675,33.667,74.675z M39.444,37.225 c-0.267,0-0.488-0.211-0.499-0.479c-0.011-0.276,0.203-0.509,0.479-0.521l1.998-0.081c0.292,0.005,0.509,0.204,0.52,0.479 c0.011,0.276-0.203,0.509-0.479,0.521l-1.999,0.081C39.458,37.225,39.451,37.225,39.444,37.225z M44.44,37.022 c-0.267,0-0.488-0.211-0.499-0.479c-0.011-0.276,0.204-0.509,0.479-0.521l19.983-0.809c0.26-0.003,0.508,0.204,0.52,0.479 c0.011,0.276-0.204,0.509-0.479,0.521l-19.983,0.809C44.454,37.022,44.447,37.022,44.44,37.022z"/></g></svg>