<svg xmlns="http://www.w3.org/2000/svg"  viewBox="0 0 100 100" width="100px" height="100px"><path fill="#f05b6c" d="M37.191,58.957l2,4c0,0,7-2,11,4l8.032,13.654c1.619,2.752,4.352,6.016,7.245,7.367 c4.131,1.929,9.924,2.458,15.723-1.021c0,0,5.979-2.489,7.191-13.213h-5c0,0-3.191,6.213-8.191,5.213 c0,0-6.651-3.325-12.372-14.524c-1.418-2.775-3.708-5.027-6.543-6.321C51.488,55.928,43.961,54.034,37.191,58.957z"/><path fill="#f05b6c" d="M48,14.83c-18.225,0-33,14.551-33,32.5s14.775,32.5,33,32.5s33-14.551,33-32.5 S66.225,14.83,48,14.83z M48,73.83c-9.941,0-18-11.864-18-26.5s8.059-26.5,18-26.5s18,11.864,18,26.5S57.941,73.83,48,73.83z"/><path fill="#1f212b" d="M48,81c-18.748,0-34-15.028-34-33.5S29.252,14,48,14s34,15.028,34,33.5 c0,10.456-4.829,20.125-13.249,26.528c-0.44,0.334-1.067,0.249-1.401-0.19s-0.249-1.067,0.19-1.401 C75.459,66.415,80,57.325,80,47.5C80,30.131,65.645,16,48,16S16,30.131,16,47.5S30.355,79,48,79c2.915,0,5.823-0.395,8.645-1.173 c0.536-0.146,1.083,0.166,1.23,0.698s-0.166,1.083-0.698,1.229C54.182,80.581,51.094,81,48,81z"/><path fill="#1f212b" d="M48,75c-13.298,0-19.25-14.188-19.25-28.25C28.75,30.25,36.126,20,48,20c11.72,0,19,10.346,19,27 c0,6.803-1.09,12.797-3.151,17.335c-0.229,0.503-0.822,0.726-1.324,0.496c-0.503-0.229-0.725-0.821-0.497-1.324 C63.972,59.228,65,53.52,65,47c0-12.086-4.466-25-17-25c-12.718,0-17.25,12.785-17.25,24.75C30.75,59.816,36.084,73,48,73 c2.109,0,4.069-0.354,5.825-1.054c0.514-0.207,1.095,0.046,1.299,0.559c0.204,0.514-0.046,1.095-0.559,1.299 C52.572,74.598,50.364,75,48,75z"/><path fill="#1f212b" d="M48,75c-13.298,0-19.25-14.188-19.25-28.25C28.75,30.25,36.126,20,48,20c11.72,0,19,10.346,19,27 c0,6.803-1.09,12.797-3.151,17.335c-0.147,0.322-0.454,0.543-0.806,0.58c-0.35,0.038-0.699-0.115-0.909-0.399 c-9.043-12.241-20.742-6.872-23.826-5.137l1.194,2.39c1.613-0.434,5.096-0.771,9.123,2.45c2.457,1.966,4.567,4.644,6.453,8.187 c0.133,0.251,0.154,0.547,0.056,0.813c-0.098,0.268-0.305,0.48-0.569,0.585C52.572,74.598,50.364,75,48,75z M48,22 c-12.718,0-17.25,12.785-17.25,24.75C30.75,59.816,36.084,73,48,73c1.688,0,3.279-0.227,4.748-0.676 c-1.605-2.794-3.37-4.941-5.372-6.543c-4.393-3.513-7.792-1.951-7.936-1.883c-0.491,0.232-1.09,0.037-1.334-0.451l-2-4 c-0.226-0.451-0.08-1,0.34-1.279c0.153-0.101,14.909-9.686,26.222,3.793C64.197,57.892,65,52.763,65,47 C65,34.914,60.534,22,48,22z"/><path fill="#1f212b" d="M54.196,73.875c-0.358,0-0.704-0.192-0.884-0.53c-1.755-3.298-3.697-5.772-5.937-7.563 c-4.393-3.513-7.792-1.951-7.936-1.883c-0.491,0.232-1.09,0.037-1.334-0.451l-2-4c-0.226-0.451-0.08-1,0.34-1.279 c0.158-0.104,15.87-10.308,27.297,5.158c0.328,0.444,0.234,1.071-0.21,1.399c-0.444,0.328-1.071,0.232-1.398-0.21 c-9.043-12.241-20.742-6.872-23.826-5.137l1.194,2.39c1.613-0.434,5.096-0.771,9.123,2.45c2.457,1.966,4.567,4.644,6.453,8.187 c0.259,0.487,0.075,1.093-0.413,1.353C54.515,73.838,54.354,73.875,54.196,73.875z"/><path fill="#1f212b" d="M76.17,54.589c-0.029,0-0.059-0.003-0.089-0.008c-0.271-0.049-0.453-0.309-0.404-0.58 C75.892,52.806,76,51.628,76,50.5c0-0.276,0.224-0.5,0.5-0.5s0.5,0.224,0.5,0.5c0,1.187-0.114,2.424-0.338,3.677 C76.618,54.419,76.408,54.589,76.17,54.589z"/><path fill="#1f212b" d="M72.5,64c-0.095,0-0.191-0.027-0.276-0.084c-0.23-0.153-0.292-0.463-0.139-0.693 c0.02-0.03,2.024-3.071,3.152-7.257c0.071-0.269,0.347-0.425,0.613-0.353c0.267,0.071,0.425,0.346,0.353,0.612 c-1.172,4.352-3.2,7.423-3.286,7.552C72.82,63.922,72.661,64,72.5,64z"/><path fill="#1f212b" d="M21.294,35.932c-0.065,0-0.131-0.013-0.194-0.039c-0.254-0.107-0.374-0.4-0.267-0.655 c0.497-1.18,1.081-2.353,1.734-3.487c0.137-0.238,0.443-0.321,0.683-0.184s0.322,0.444,0.184,0.684 c-0.633,1.099-1.197,2.234-1.678,3.376C21.674,35.816,21.489,35.932,21.294,35.932z"/><g><path fill="#1f212b" d="M19.595,41.43c-0.033,0-0.066-0.003-0.1-0.01c-0.271-0.055-0.446-0.318-0.391-0.59 c0.261-1.289,0.614-2.576,1.05-3.826c0.091-0.261,0.378-0.398,0.637-0.307c0.261,0.091,0.398,0.376,0.308,0.637 c-0.421,1.206-0.762,2.449-1.014,3.695C20.037,41.266,19.828,41.43,19.595,41.43z"/></g><g><path fill="#1f212b" d="M24,64.5c-0.16,0-0.318-0.077-0.415-0.22c-0.064-0.095-6.39-9.598-4.806-21.512 c0.036-0.274,0.286-0.468,0.562-0.431c0.274,0.037,0.466,0.288,0.43,0.562c-1.535,11.542,4.581,20.729,4.643,20.82 c0.155,0.229,0.095,0.539-0.134,0.694C24.194,64.472,24.097,64.5,24,64.5z"/></g><g><path fill="#1f212b" d="M72.5,91c-6.566,0-12.695-4.568-15.996-11.922c-0.227-0.504-0.001-1.096,0.502-1.321 c0.505-0.228,1.095-0.001,1.322,0.503C61.302,84.885,66.732,89,72.5,89c7.118,0,12.998-5.453,15.235-14h-3.804 c-0.176,1.222-0.685,2.254-1.52,3.076c-1.319,1.299-3.37,1.967-5.927,1.924c-3.115-0.049-5.597-0.525-9.185-6.235 c-0.294-0.468-0.153-1.085,0.314-1.379c0.469-0.293,1.085-0.151,1.379,0.314c3.288,5.233,5.25,5.264,7.523,5.3 c1.999,0.025,3.576-0.448,4.493-1.35C81.667,76.003,82,75.111,82,74c0-0.553,0.448-1,1-1h6c0.302,0,0.588,0.137,0.778,0.371 c0.19,0.235,0.263,0.543,0.2,0.839C87.791,84.409,80.931,91,72.5,91z"/></g></svg>