<svg xmlns="http://www.w3.org/2000/svg"  viewBox="0 0 100 100" width="100px" height="100px"><path fill="#39c1d7" d="M69.654,17.921h-39c-7.168,0-13,5.832-13,13v39c0,7.168,5.832,13,13,13h39c7.168,0,13-5.832,13-13	v-39C82.654,23.753,76.822,17.921,69.654,17.921z"/><path fill="#fefdef" d="M57.604,59.563h-19.59c-4.161,0-7.535-3.294-7.535-7.356V40.438h19.59 c4.161,0,7.535,3.294,7.535,7.356V59.563z"/><polygon fill="#fefdef" points="69.521,60 60.604,53.846 60.604,46.154 69.521,40"/><path fill="none" stroke="#1f212b" stroke-linecap="round" stroke-linejoin="round" stroke-miterlimit="10" d="M41.782,40.438h8.288	c4.161,0,7.535,3.294,7.535,7.356v11.769h-19.59c-4.161,0-7.535-3.294-7.535-7.356V40.438h4.5"/><path fill="none" stroke="#1f212b" stroke-linecap="round" stroke-linejoin="round" stroke-miterlimit="10" d="M37,40.438h0.782"/><polygon fill="none" stroke="#1f212b" stroke-linecap="round" stroke-linejoin="round" stroke-miterlimit="10" points="69.521,60 60.604,53.846 60.604,46.154 69.521,40"/><path fill="#1f212b" d="M69.654,17.921h-39c-7.168,0-13,5.832-13,13v39c0,7.168,5.832,13,13,13h39c7.168,0,13-5.832,13-13	v-39C82.654,23.753,76.822,17.921,69.654,17.921z M80.654,69.921c0,6.065-4.935,11-11,11h-39c-6.065,0-11-4.935-11-11v-39	c0-6.065,4.935-11,11-11h39c6.065,0,11,4.935,11,11V69.921z"/><path fill="#1f212b" d="M77.154,47.921c-0.276,0-0.5,0.224-0.5,0.5v18.663c0,5.424-4.413,9.837-9.837,9.837H33.49	c-5.424,0-9.837-4.413-9.837-9.837V33.758c0-5.424,4.413-9.837,9.837-9.837h33.663c0.276,0,0.5-0.224,0.5-0.5s-0.224-0.5-0.5-0.5	H33.49c-5.976,0-10.837,4.861-10.837,10.837v33.326c0,5.976,4.861,10.837,10.837,10.837h33.326c5.976,0,10.837-4.861,10.837-10.837	V48.421C77.654,48.145,77.43,47.921,77.154,47.921z M77.154,40.921c-0.276,0-0.5,0.224-0.5,0.5v4c0,0.276,0.224,0.5,0.5,0.5	s0.5-0.224,0.5-0.5v-4C77.654,41.145,77.43,40.921,77.154,40.921z M76.654,37.421v2c0,0.276,0.224,0.5,0.5,0.5s0.5-0.224,0.5-0.5v-2	c0-0.276-0.224-0.5-0.5-0.5S76.654,37.145,76.654,37.421z"/></svg>