<?xml version="1.0" encoding="UTF-8" standalone="no"?>
<svg
   width="900"
   height="1200"
   viewBox="0 0 900 1200"
   version="1.1"
   id="svg150"
   sodipodi:docname="bust.svg"
   inkscape:version="1.2.2 (b0a84865, 2022-12-01)"
   xmlns:inkscape="http://www.inkscape.org/namespaces/inkscape"
   xmlns:sodipodi="http://sodipodi.sourceforge.net/DTD/sodipodi-0.dtd"
   xmlns="http://www.w3.org/2000/svg"
   xmlns:svg="http://www.w3.org/2000/svg"
   xmlns:rdf="http://www.w3.org/1999/02/22-rdf-syntax-ns#"
   xmlns:cc="http://creativecommons.org/ns#"
   xmlns:dc="http://purl.org/dc/elements/1.1/">
  <defs
     id="defs154" />
  <sodipodi:namedview
     id="namedview152"
     pagecolor="#ffffff"
     bordercolor="#000000"
     borderopacity="0.25"
     inkscape:showpageshadow="2"
     inkscape:pageopacity="0.0"
     inkscape:pagecheckerboard="0"
     inkscape:deskcolor="#d1d1d1"
     showgrid="false"
     inkscape:zoom="0.30789302"
     inkscape:cx="501.79768"
     inkscape:cy="498.54979"
     inkscape:window-width="1512"
     inkscape:window-height="861"
     inkscape:window-x="44"
     inkscape:window-y="25"
     inkscape:window-maximized="0"
     inkscape:current-layer="svg150" />
  <!-- Generator: Sketch 62 (91390) - https://sketch.com -->
  <title
     id="title132">a mono/bust</title>
  <desc
     id="desc134">Created with Sketch.</desc>
  <g
     id="a-mono/bust"
     stroke="none"
     stroke-width="1"
     fill="none"
     fill-rule="evenodd"
     transform="translate(13.999997,-166.5)">
    <g
       id="facial-hair/*-None"
       transform="translate(494.99993,517.99966)"
       inkscape:label="facial-hair/*-None" />
    <g
       id="accessories/*-None"
       transform="translate(419,421)" />
    <g
       id="body/mono/Coffee"
       stroke="none"
       stroke-width="1"
       fill="none"
       fill-rule="evenodd"
       transform="translate(157.33963,628.65404)" />
    <g
       id="g884"
       transform="translate(-181.33941,14.22782)">
      <path
         d="m 452.41041,752.61326 c -7.07799,-25.496 -6.06557,-28.25363 -16.61457,-52.60663 -34.98,-70.75 -268.739,-47.061 -292.596,23.563 -12.94259,38.31401 -9.902,92.273 -13.271,125.496 -1.03096,17.6147 -2.04368,35.23051 -3.09279,52.84373 -0.36231,6.08278 -0.72897,12.16526 -1.10221,18.24727 -0.727,11.84 -1.434,23.68 -2.094,35.524 -4.395,36.486 13.941,40.197 45.392,39.117 8.315,20.06097 21.782,36.80697 38.417,50.43197 -4.015,10.922 10.545,16.576 18.399,20.943 42.733,23.86 95.224,38.415 142.557,24.998 13.90757,-3.9422 71.34152,-17.5956 89.001,-59.8615 8.67208,-20.7556 26.30095,-128.24106 3.05295,-224.92906 z"
         id="ðŸŽ¨-Background-2-0"
         fill="#ffffff"
         transform="translate(388.0374,189.96486)" />
      <path
         d="m 394.2068,3.1729 c 24.685,-18.797 86.658,-27.25 113.004,-9.151 26.022,18.175 28.85884,47.566463 40.98484,74.604463 11.441,-5.395 30.33459,2.331537 33.65159,12.947537 4.114,5.007 4.29877,19.07436 7.13577,25.80536 123.442,19.649 142.1828,115.88764 157.0408,225.14564 19.656,110.869 64.277,221.496 44.906,335.582 2.524,3.652 4.514,7.202 6.354,11.418 4.409,7.502 -1.27,18.121 -10.163,17.71 -11.511,-1.011 -22.908,-2.391 -34.473,-2.822 -32.05974,-1.11339 -64.14876,-0.98064 -96.22067,-0.57317 l -4.37333,0.0572 c -161.633,2.012 -323.257,5.977 -484.897,7.02852 -5.864,0.008 -8.735,-5.25052 -7.952,-10.43852 1.577,-10.445 3.04,-20.895 4.567,-31.345 -38.232,10.098 -78.876,12.639 -117,1.062 -2.667,-2.717 6.214,-1.244 7.623,-1.657 -35.086,-23.975 -24.608,-74.482 -21.5,-110.86 19.326,-124.651 26.139,-262.569 100.808,-368.936 32.303,-43.408 79.662,-77.776 134.081,-85.509 l 1.50975,-0.206711 C 285.20561,90.913542 302.93946,90.2301 316.8518,81.5739 c 15.64721,-12.491308 22.31509,-35.571938 38.77661,-35.788003 5.43568,-0.07135 12.83018,6.805177 20.78739,11.474003 0.59402,-10.270639 6.12899,-18.938134 7.35105,-26.901499 l 0.0989,-0.681013 C 385.14096,20.393205 383.39454,12.040397 394.2068,3.1729 Z m 265.28828,332.64523 c -34.69073,-24.09951 -124.3037,-11.99046 -126.35516,-10.64098 -4.517,2.971 -6.46212,3.23375 -8.90512,7.09175 -2.412,0.32 -4.822,0.652 -7.23,0.994 -4.831,1.578 -1.251,7.52 4.329,5.4 -3.35625,14.4743 6.52088,24.76798 10.453,39.07738 1.27673,4.64617 0.0461,13.00237 0,17.74962 0.38133,6.0529 7.07353,13.20262 5.95817,19.27523 -3.9653,21.5892 -25.48335,42.64909 -16.41117,63.58596 6.01,11.825 24.086,17.85481 36.104,21.87481 24.899,9.556 68.28321,-0.35981 82.75021,-21.87481 7.71648,-11.47578 16.65638,-40.42346 21.25738,-49.40246 l 1.0198,-14.24359 c 2.51494,-35.40681 4.752,-73.5224 -2.97011,-78.88691 z"
         id="ðŸŽ¨-Background-1"
         fill="#ffffff"
         transform="translate(157.33963,628.65404)" />
      <path
         d="m 349.5843,43.698 c 2.395,-2.121 5.939,0.544 4.417,3.409 -3.42,6.439 -6.928,12.54 -11.518,18.232 -2.783,3.451 -5.764,6.715 -8.785,9.943 7.753,6.707 14.402,15.034 20.681,22.838 8.029,9.981 15.62,20.385 24.633,29.518 8.88877,9.00719 18.71723,15.30353 30.60104,19.50214 l 2.40016,0.83366 c 11.93821,4.19108 24.69767,9.85098 31.4268,21.1542 1.327,2.229 -1.345,4.983 -3.591,3.592 -11.693,-7.24 -25.432,-8.696 -38.16,-13.48 -12.295,-4.621 -23.013,-11.733 -32.483,-20.81 -9.454,-9.062 -17.392,-19.372 -25.672,-29.464 -8.188,-9.979 -17.004,-18.502 -26.689,-26.945 -14.94553,10.054386 -32.00548,14.429332 -49.35254,18.72628 l -1.89346,0.46872 c -17.368,4.3 -34.643,9.294 -50.937,16.782 -14.366,6.601 -28.496,14.484 -40.198,25.226 -12.422,11.4 -22.09,25.96 -30.939,40.199 -19.794,31.856 -33.71,66.756 -45.961,102.08 -12.742,36.742 -23.4,74.22 -32.004,112.143 -4.376,19.29 -7.93,38.717 -10.851,58.28 -1.406,9.422 -2.655,18.864 -3.752,28.327 -1.171,10.105 -1.44,20.501 -4.54,30.217 -1.329,4.164 -4.467,5.892 -7.608,5.745 l -0.637976,7.97877 C 37.32534,538.83172 36.5367,549.473 36.2703,560.177 c -0.441913,17.798 -0.241543,35.54476 1.038689,53.30505 L 37.4903,615.904 c 1.006,12.962 3.254,27.526 13.001,37.017 10.094,9.83 25.617,12.921 39.222,13.098 31.687,0.413 62.189,-14.559 90.229,-27.694 28.878,-13.527 56.967,-28.542 84.383,-44.826 13.962,-8.293 27.773,-16.862 41.408,-25.681 6.691,-4.329 13.335,-8.731 19.929,-13.204 3.777,-2.562 7.356,-5.371 11.201,-7.644 -1.884,-1.754 -2.725,-4.512 -1.147,-6.92 -11.115,-9.648 -15.741,-26.865 -16.282,-40.796 -0.437,-11.245 1.218,-22.458 2.524,-33.597 0.659,-5.617 1.473,-11.224 2.318,-16.816 0.334,-2.209 0.589,-4.572 0.979,-6.904 -30.013,16.493 -60.867,31.181 -92.538,44.23 -16.234,6.689 -32.676,12.703 -49.345,18.214 l -3.37855,1.11161 c -15.79391,5.16989 -31.96572,10.05352 -48.29345,13.00939 -0.873,0.158 -1.582,-1.131 -0.65,-1.542 15.912,-7.021 32.375,-12.943 48.526,-19.409 l 2.654,-1.081 v 0 c -0.305,-0.017 -0.621,-0.059 -0.951,-0.138 -9.472,-2.286 -18.87,-5.809 -28.16,-8.775 -8.622,-2.753 -18.309,-4.482 -26.368,-8.638 -0.62,-0.32 -0.273,-1.182 0.331,-1.223 9.058,-0.628 18.891,2.012 27.772,3.565 l 3.3363,0.5844 c 5.58898,0.98549 11.30203,2.04493 16.8637,3.4266 0.201,-1.863 1.242,-3.734 2.723,-4.831 16.297,-12.069 14.642,-36.445 16.385,-54.42 l 1.29249,-13.34503 c 2.27342,-23.35523 4.67851,-46.70733 8.33251,-69.88797 0.195,-1.238 2.11,-0.883 2.118,0.286 0.18846,28.73461 -1.98069,57.33702 -3.06794,86.02679 l -0.16836,4.70647 c -0.60108,17.70278 -1.07217,36.08507 -12.2217,49.70674 1.559,-0.911 3.667,-0.911 4.93,0.591 1.552,1.847 2.448,3.921 2.42,5.956 10.075,-4.224 20.106,-8.558 30.088,-12.98 32.093,-14.218 63.513,-30.129 94.102,-47.345 3.292,-1.853 6.421,-0.397 8.049,2.046 l 0.23496,-0.0337 c 0.0393,-0.005 0.079,-0.009 0.12004,-0.0103 l 0.233,-0.01 c 0.009,0 0.018,10e-4 0.026,10e-4 4.306,-2.366 10.172,-0.681 13.867,2.77 0.109,0.104 0.202,0.216 0.299,0.326 4.678,-2.1 9.046,-4.935 13.01,-8.528 8.112,-7.352 14.983,-16.443 20.973,-25.559 11.031,-16.79 20.401,-35.461 35.302,-49.282 12.107,-11.229 27.117,-18.22 42.864,-22.609 -0.066,-0.46 0.11,-0.95 0.428,-1.276 0.809,-0.829 1.386,-1.116 2.431,-0.613 0.083,0.041 0.133,0.097 0.167,0.157 l 1.53662,-2.62547 c 0.83874,-1.4246 1.7,-2.8596 1.99838,-3.23653 1.788,-2.251 3.628,-4.485 5.496,-6.672 3.167,-3.703 6.776,-7.357 10.955,-9.925 9.15,-5.621 18.769,-2.44 28.176,0.632 5.684,1.857 11.349,3.774 17.023,5.659 l 0.5853,0.19113 c 4.23086,1.35935 9.1817,2.54836 11.0737,7.03087 0.749,1.774 0.865,3.615 0.516,5.401 40.184,-10.219 84.816,-5.524 124.029,6.472 1.505,0.46 3.008,1.698 3.325,3.324 4.493,23.041 6.494,46.67 4.461,70.104 -1.754,20.228 -6.236,40.051 -14.682,58.57 l -0.48019,1.04561 c -7.93753,17.1625 -20.51791,38.31917 -39.73081,43.69839 -11.601,3.248 -24.432,1.333 -36.264,0.738 -11.499,-0.579 -23.253,-0.663 -34.643,-2.471 -10.144,-1.61 -19.032,-6.157 -25.301,-14.405 -5.408,-7.116 -8.256,-15.716 -10.589,-24.271 -1.068,0.34 -2.129,0.701 -3.173,1.11 -4.407,1.721 -8.141,4.499 -11.517,7.768 -7.129,6.904 -12.659,15.289 -20.118,21.877 -6.752,5.964 -14.446,10.602 -22.699,14.168 -17.1013,7.38916 -35.44704,10.34205 -53.53639,14.25815 l -1.26161,0.27485 c -13.618,2.988 -27.518,6.657 -39.538,13.747 -0.235,2.087 -1.186,4.051 -2.71,5.337 2.12,1.991 3.018,5.144 1.155,8.102 -5.20387,8.25847 -14.1675,12.95738 -22.21454,18.2387 l -0.52346,0.3453 c -7.916,5.248 -15.901,10.392 -23.951,15.431 -16.365,10.246 -33.072,19.928 -50.015,29.184 -27.251,14.887 -55.087,28.93 -83.427,41.668 1.701,8.3685 1.07946,16.99759 2.35797,25.42196 l 0.19603,1.20204 c 0.54617,3.1262 -0.19159,5.74219 -2.34516,7.78475 l -0.22784,0.20925 0.004,-0.028 -0.202,0.185 -0.0675,0.0566 0.0225,-0.0176 c -0.24825,0.22725 -0.50438,0.43875 -0.76542,0.62016 l -0.33258,0.21384 v 0 c -2.07422,1.26052 -4.7447,1.246 -6.86844,0.13326 l -0.24256,-0.13326 -0.408,-0.234 c -2.806,-1.614 -4.741,-5.613 -3.577,-8.79 2.861,-7.808 3.942,-16.141 6.584,-24.001 l -2.096,0.937 v 0 l -2.76256,1.20407 C 133.33881,675.56781 100.15047,686.4476 67.5963,677.64 c -14.384,-3.893 -27.828,-12.127 -35.025,-25.548 -7.082,-13.206 -8.083,-28.54 -8.459,-43.23 -0.464,-18.131 0.508,-36.539 2.899,-54.514 1.605,-12.066 3.546,-24.36 6.54,-36.301 -1.54,-1.359 -2.672,-3.308 -2.971,-5.722 -1.413,-11.405 1.06,-23.262 2.574,-34.608 1.479,-11.078 3.113,-22.134 4.961,-33.156 3.731,-22.259 8.066,-44.471 13.113,-66.469 8.982,-39.151 20.843,-77.606 35.123,-115.142 l 1.250539,-3.26962 C 100.79731,225.37163 116.07568,191.79417 137.3503,161.654 c 10.177,-14.42 20.935,-27.494 35.315,-37.885 13.472,-9.736 28.668,-16.746 44.35,-22.104 15.699,-5.362 31.835,-8.955 48.256,-11.19 16.677,-2.27 34.28,-3.662 49.837,-10.502 -1.968,-3.528 -0.279,-8.291 3.033,-10.479 11.146,-7.364 21.453,-16.944 31.443,-25.796 z M 706.39,363.9193 c 0.467,-0.709 1.576,-0.261 1.371,0.578 -5.421,22.209 -10.51,44.463 -13.833,67.096 -5.99858,40.84969 -4.89516,82.23284 -4.40478,123.38467 l 0.0248,2.12833 c 0.252,22.166 0.602,44.334 1.335,66.491 0.37,11.198 1.102,22.506 0.704,33.71 -0.217,6.078 -1.837,11.827 -2.411,17.832 -0.503,5.251 -0.055,10.583 0.196,15.841 0.168,3.496 -4.992,3.347 -5.343,0 l -0.4488,-4.32916 c -0.58305,-5.47866 -1.3037,-10.92384 -3.0992,-16.16784 -2.159,-6.307 -3.195,-12.501 -3.944,-19.123 -1.14725,-10.14731 -1.65745,-20.39629 -2.10023,-30.61498 L 674.134,613.6773 c -1.84898,-42.70423 -1.78417,-85.60881 1.20919,-128.26832 l 0.21881,-3.04668 c 2.964,-40.324 8.107,-83.893 30.828,-118.443 z M 590.8351,109.7726 c -1.416,-0.582 -0.92,-2.723 0.648,-2.35 l 2.85155,0.6802 c 20.89458,5.00471 41.40993,10.4271 60.91245,19.7398 19.515,9.318 36.037,23.229 49.165,40.335 25.52,33.251 36.125,73.661 44.497,114.033 9.304,44.861 17.775,89.886 27.16,134.733 l 1.74277,8.35374 c 8.68402,41.7696 16.88298,83.56289 22.92423,125.82726 l 0.43397,3.06533 c 6.09218,43.46151 9.75662,88.42796 3.10903,132.00267 -1.315,8.621 -15.661,6.474 -15.1,-2.043 1.62,-24.623 2.78,-49.117 1.659,-73.795 -1.122,-24.683 -3.437,-49.258 -6.888,-73.725 -2.90415,-20.5903 -7.23335,-40.92429 -11.0645,-61.35092 l -0.6005,-3.22608 c -3.208,-17.3736 -6.5152,-34.72992 -9.8151,-52.08739 l -4.93137,-25.98793 C 750.14761,355.06424 742.612,316.1171 734.0971,277.4486 l -0.50531,-2.27538 C 725.25897,237.97109 712.974,199.0017 687.9791,169.4596 c -25.365,-29.981 -61.676,-45.08 -97.144,-59.687 z m -92.167,394.5977 c 0.61,-1.359 2.744,-1.21 3.4,0 2.57037,4.74247 2.85602,10.79596 3.34192,16.14974 l 0.0511,0.55126 c 0.618,6.533 1.165,13.088 1.5,19.642 0.635,12.439 0.939,24.862 0.9,37.317 -0.04,12.764 -0.297,25.513 -0.985,38.258 l -0.18671,3.41507 c -0.62808,11.07564 -1.6815,23.42951 -6.94429,33.11193 -1.913,3.521 -7.116,2.486 -8.224,-1.074 -3.63,-11.656 -1.766,-25.476 -0.835,-37.414 l 0.72294,-9.31514 c 0.71587,-9.31617 1.39856,-18.63586 1.94006,-27.96286 0.742,-12.761 1.354,-25.533 1.943,-38.3 0.19133,-4.14667 0.39822,-8.29467 0.61681,-12.44133 l 0.33619,-6.21867 c 0.287,-5.202 0.263,-10.91 2.423,-15.719 z m -408.147781,16.51951 1.606941,-1.55227 c 4.932999,-4.82748 11.16681,-12.26244 18.45934,-11.80134 2.908,0.184 4.761,2.598 4.158,5.459 -1.288,6.116 -7.527,9.29 -12.018,13.024 -4.92,4.089 -9.557,8.46 -14.185,12.873 -4.105778,3.91289 -8.054321,7.93718 -11.908137,12.08694 L 75.1926,552.5412 c -1.381415,1.50745 -11.218526,10.40514 -10.154915,12.71367 l 0.05792,0.10333 c 0.296,0.442 -0.197,1.05 -0.688,0.895 -4.248,-1.342 -3.983,-4.983 -2.377,-8.672 3.086,-7.088 8.49,-13.645 13.209,-19.698 4.70625,-6.03844 9.800098,-11.66115 15.280719,-16.99339 z M 514.0613,343.137 c -3.285,-7.764 -15.386,-7.601 -22.256,-7.137 -17.3,1.169 -36.018,5.546 -51.411,13.632 -15.95865,8.38301 -26.70834,21.81502 -36.32694,36.66775 l -0.45006,0.69725 c -9.375,14.573 -18.404,31.824 -33.084,41.844 -7.477,5.105 -16.208,9.766 -25.28,11.785 -0.623,1.095 -1.632,1.962 -2.955,2.277 l -0.61501,0.14074 c -2.58381,0.57048 -6.59791,1.2018 -10.06499,0.82426 0.023,1.696 0.005,3.379 0.048,4.986 0.122,4.605 0.174,9.23 0.174,13.838 0.002,9.655 -0.517,19.329 -0.114,28.983 0.357,8.539 1.563,17.461 5.663,25.094 3.007,5.6 6.976,9.306 11.767,12.844 11.786,-7.183 25.113,-11.561 38.639,-14.853 16.358,-3.981 33.107,-6.638 49.093,-12.036 7.694,-2.599 15.091,-6 21.793,-10.619 7.113,-4.905 12.546,-11.541 18.136,-18.032 l 0.87375,-1.00848 c 5.70486,-6.54277 11.92971,-12.80342 19.99225,-16.35052 6.943,-3.056 16.094,-3.6 22.165,-8.328 3.174,-2.474 3.44,-6.064 3.774,-9.74 -3.888,0.556 -8.004,-0.335 -11.879,-0.789 l -2.00769,-0.23565 c -3.66421,-0.43536 -7.24416,-0.91389 -10.85131,-1.84635 -0.67,-0.173 -0.67,-1.183 0,-1.356 4.263,-1.101 8.488,-1.57 12.859,-2.082 l 1.02665,-0.12803 c 3.95429,-0.51859 8.11063,-1.30129 11.98935,-0.43097 0.696,-2.648 1.701,-5.176 3.111,-7.708 1.979,-3.557 5.724,-7.59 6.23,-11.745 0.151,-1.241 -0.138,-2.704 -0.723,-3.801 l -0.20164,-0.37393 c -0.24582,-0.44163 -0.53714,-0.88574 -0.96336,-1.16107 -0.047,0.055 -0.147,0.118 -0.364,0.186 -2.985,0.94 -5.589,-0.521 -6.971,-2.773 -5.867,0.728 -12.27,0.483 -17.772,0.726 l -5.56298,0.26907 c -5.94412,0.27251 -12.1583,0.39183 -17.74402,-0.80907 -0.78,-0.167 -1.016,-1.465 -0.235,-1.799 6.867,-2.937 15.197,-3.874 22.549,-5.002 4.106,-0.631 8.242,-1.111 12.36,-1.666 2.742,-0.37 5.652,-0.981 8.493,-1.128 7.123,-8.867 3.285,-22.855 -6.628,-26.673 -3.611,1.587 -6.858,0.664 -10.803,0.325 -3.938,-0.338 -7.886,-0.567 -11.84,-0.55 -7.923,0.035 -16.319,2.119 -24.165,1.222 -1.276,-0.147 -2.462,-1.845 -1.193,-2.881 6.00598,-4.90106 14.61331,-6.4991 22.23694,-7.54355 l 1.58006,-0.21145 c 2.556,-0.335 5.664,-0.824 8.888,-1.115 0.729,-1.422 2.037,-2.497 4.002,-2.764 0.584,-0.08 1.171,-0.127 1.757,-0.177 l -0.009,-0.058 v 0 c 4.792,-0.23 4.584,-8.324 3.27,-11.43 z m -328.069,151.425 c -0.0847,0.13067 -0.17733,0.25511 -0.27593,0.37482 l -0.15207,0.17618 0.788,-0.32 z m 411.691,-168.774 c -20.17,-2.167 -40.369,-1.71 -60.599,-1.128 -1.618,5.292 -7.25,9.802 -12.707,9.972 4.274,6.505 4.715,15.309 1.718,22.208 6.363,2.533 11.845,7.083 15.173,13.563 4.615,8.983 4.011,18.979 -0.55,27.281 3.893,3.524 6.19,9.247 5.96,14.641 -0.257,6.015 -3.842,11.153 -6.821,16.133 -3.219,5.386 -3.327,10.128 -4.316,16.16 -1.447,8.828 -7.401,14.182 -15.062,17.526 l 0.40727,1.60195 c 1.97512,7.6881 4.43258,15.80027 10.07773,21.42205 7.26187,7.23235 18.52755,7.16507 28.12208,7.62338 l 0.46292,0.0226 c 8.7856,0.4392 17.56736,0.95392 26.34989,1.45149 l 6.58711,0.36851 c 10.112,0.556 19.823,0.623 28.078,-6.062 13.477,-10.912 22.716,-28.971 28.564,-44.958 12.274,-33.556 12.421,-70.381 6.787,-105.329 -18.895,-6.09 -38.5,-10.377 -58.232,-12.497 z m -167.73878,55.67137 0.14828,0.0108 c 4.153,0.474 7.006,3.837 8.022,7.826 1.476,5.798 0.752,11.04 4.303,16.274 3.653,5.382 5.899,9.691 6.43,16.34 0.218,2.736 0.118,5.465 0.727,8.143 l 0.44159,1.87627 c 0.46894,2.00066 0.85264,3.92767 0.61941,6.07573 -0.213,1.959 -1.167,3.485 -3.132,4.113 -6.403,2.048 -11.347,-2.67 -13.001,-8.637 -1.429,-5.154 0.479,-11.296 -1.537,-16.136 -1.117,-2.683 -3.177,-4.927 -4.341,-7.628 -1.153,-2.677 -1.732,-5.474 -1.917,-8.384 -0.351,-5.504 4.517,-12.117 1.801,-17.104 -0.57835,-1.064 0.0766,-2.802 1.43572,-2.76983 z M 344.8918,324.6613 c 4.336,-0.881 9.255,-2.9 13.531,-1.222 2.198,0.864 3.284,3.544 1.427,5.407 -3.22417,3.23194 -7.91009,3.41205 -12.25276,4.17415 l -0.38224,0.0688 c -5.135,0.95 -10.279,1.851 -15.43,2.705 -9.691,1.605 -19.405,3.024 -29.153,4.23 -10.012,1.239 -20.052,2.342 -30.106,3.172 l -3.89222,0.31934 c -8.49278,0.67921 -17.32978,1.19153 -25.66278,-0.10934 -1.211,-0.189 -1.016,-1.952 0,-2.261 9.129,-2.763 19.143,-3.504 28.581,-4.673 10.034,-1.245 20.051,-2.56 30.042,-4.12 9.975,-1.558 19.937,-3.23 29.862,-5.078 4.486,-0.834 8.965,-1.705 13.436,-2.613 z M 501.3463,315.79 c -3.805,-1.347 -7.991,-3.343 -12.114,-2.675 -7.11,1.152 -13.438,8.079 -19.066,12.641 l 2.82588,-0.54928 c 14.45934,-2.77906 33.60731,-5.77285 45.74512,3.42028 0.031,-0.053 0.055,-0.106 0.09,-0.159 0.98,-1.488 2.115,-2.649 3.354,-3.922 0.11833,-0.11167 0.23289,-0.227 0.34556,-0.34422 l 0.66844,-0.71178 -1.52891,-0.52964 c -3.27476,-1.15754 -7.15431,-2.65232 -7.7676,-2.8705 l -0.0425,-0.0149 c -4.175,-1.414 -8.355,-2.812 -12.51,-4.285 z M 382.5446,12.7157 c -0.595,-7.653 11.316,-7.59 11.906,0 1.287,16.57 -2.442,32.983 -10.468,47.51 -0.059,0.106 -0.124,0.2 -0.186,0.3 5.02,2.612 10.097,5.118 15.287,7.358 6.639,2.866 13.403,5.476 20.288,7.69 6.228,2.004 13.901,2.795 19.137,6.965 11.041,8.792 6.893,27.038 4.769,38.865 l -0.33137,1.86703 c -1.05757,6.08603 -1.82247,12.33004 0.74337,18.17097 2.74,6.239 8.281,10.867 13.224,15.331 l 0.99836,0.90522 c 4.37904,3.98924 9.38271,8.83678 12.59464,14.24478 2.932,-6.062 6.929,-11.016 11.155,-16.593 3.015,-3.98 0.869,-5.292 -1.297,-9.18 -2.085,-3.742 -3.103,-7.731 -2.451,-12 1.203,-7.884 7.504,-13.579 13.776,-17.858 7.407,-5.051 15.674,-8.793 23.331,-13.492 15.734,-9.654 31.057,-20.692 44.862,-32.951 0.381,-0.339 1.041,0.105 0.736,0.568 -10.905,16.587 -23.692,30.92 -39.407,43.086 -6.37219,4.93312 -13.06605,9.02514 -19.80475,13.3266 l -1.93735,1.2432 c -2.70568,1.75272 -6.08052,4.09523 -7.3039,7.0792 -1.231,3.001 1.394,5.267 2.807,7.753 4.48697,7.89455 2.32218,15.26048 -2.99726,21.95548 l -0.24774,0.30852 c -5.286,6.514 -9.292,12.572 -11.208,20.894 -4.11683,17.87678 1.61739,36.49784 7.61994,53.28049 l 0.23706,0.66151 c 3.247,9.046 6.698,18.026 9.519,27.217 l 0.7762,2.54095 c 2.55602,8.45667 4.64907,16.79741 1.7818,25.49105 -0.975,2.957 -5.008,3.656 -6.683,0.873 -5.909,-9.814 -7.382,-21.624 -11.086,-32.414 -3.61,-10.516 -7.755,-20.842 -11.242,-31.401 -4.49,-13.595 -7.495,-28.229 -5.864,-42.489 -0.048,-0.083 -0.101,-0.161 -0.141,-0.249 l -1.14298,-2.50012 c -3.11674,-6.76973 -6.12705,-12.68193 -11.79502,-18.07788 -5.912,-5.629 -12.329,-10.612 -16.981,-17.426 -10.10463,-14.8012 -3.85538,-31.26618 -2.63485,-47.45003 l 0.13966,-1.98455 c 0.22171,-3.360195 0.34322,-7.926798 -1.85181,-10.25242 -2.469,-2.618 -8.259,-3.286 -11.535,-4.445 -8.466,-2.996 -16.809,-6.487 -24.755,-10.679 -7.564,-3.99 -14.891,-8.398 -21.713,-13.562 l -3.45775,-2.601233 C 364.25523,56.479108 358.59807,51.983994 354.9416,46.3807 c -0.422,-0.645 0.295,-1.686 1.059,-1.377 6.104,2.477 11.681,6.417 17.392,9.845 0.089,-0.209 0.192,-0.42 0.309,-0.632 7.066,-12.788 9.972,-26.956 8.843,-41.501 z m 194.9834,87.6152 c 2.432,-6.669 13.516,-6.154 13.074,1.77 -0.3389,6.08759 -2.92352,11.58228 -5.28676,17.10963 l -0.25224,0.59237 c -2.44,5.759 -5.258,11.166 -8.63,16.444 -6.443,10.09 -13.99,19.454 -22.051,28.291 -7.308,8.012 -16.9,12.911 -27.953,12.097 -4.657,-0.343 -9.358,-1.528 -13.439,-3.854 -4.847,-2.764 -10.111,-11.063 -16.295,-9.053 -0.598,0.194 -1.156,-0.682 -0.639,-1.097 7.139,-5.749 15.242,3.165 22.077,5.313 10.299,3.235 20.868,-0.342 27.497,-8.668 6.921,-8.693 13.291,-18.426 19.108,-27.891 2.954,-4.806 5.649,-9.794 7.977,-14.935 2.349,-5.189 2.883,-10.828 4.813,-16.119 z M 560.9267,59.2885 c -0.3,-0.921 0.844,-1.797 1.653,-1.271 4.691,3.054 8.756,7.089 13.083,10.626 4.801,3.924 9.637,7.768 14.548,11.553 7.159,5.519 -1.144,15.679 -7.446,9.65 -8.624,-8.247 -18.069,-19.031 -21.838,-30.558 z M 535.1716,27.009 c 1.90575,-7.34877 13.17734,-4.318281 11.53475,2.944623 L 546.6526,30.175 c -3.11106,11.996699 1.31981,24.21008 10.7787,31.98745 l 0.3483,0.28255 c 5.984,4.789 -2.494,13.161 -8.419,8.418 -12.935,-10.352 -18.316,-27.937 -14.189,-43.854 z"
         id="ðŸ–-Ink-8"
         fill="#000000"
         transform="translate(157.33963,628.65404)" />
      <path
         d="m 456.55652,395.24177 c -0.97655,-4.08708 -0.83687,-4.52915 -2.29233,-8.43301 -4.82625,-11.34145 -37.0784,-7.54403 -40.36999,3.77723 -1.78572,6.14187 -1.3662,14.79166 -1.83103,20.11741 -0.14224,2.82371 -0.28196,5.64758 -0.42671,8.47103 -0.05,0.9751 -0.1006,1.95015 -0.15209,2.9251 -0.10028,1.89798 -0.19783,3.79598 -0.2889,5.69462 -0.60638,5.84881 1.92346,6.4437 6.26282,6.27057 1.14723,3.21585 3.00529,5.90029 5.30045,8.08442 -0.55395,1.75084 1.45491,2.65719 2.53854,3.35723 5.89596,3.82484 13.13824,6.15805 19.66885,4.00726 1.91886,-0.63194 9.84312,-2.82063 12.27964,-9.59599 1.19649,-3.32719 3.62878,-20.55746 0.42122,-36.05687 z"
         id="ðŸŽ¨-Background-2-0-3"
         fill="#ffffff"
         style="stroke-width:0.14872"
         transform="translate(157.33963,628.65404)" />
      <g
         id="head/mono/Shaved-2"
         stroke="none"
         stroke-width="1"
         fill="none"
         fill-rule="evenodd"
         transform="translate(388.0374,189.96486)">
        <path
           d="m 388.41667,151.80883 c -7.07799,-25.496 -6.06557,-28.25363 -16.61457,-52.60663 -34.98,-70.75 -268.739,-47.061 -292.596,23.563 -12.942589,38.31401 -9.902,92.273 -13.271,125.496 -1.030956,17.6147 -2.04368,35.23051 -3.09279,52.84373 -0.362314,6.08278 -0.728967,12.16526 -1.10221,18.24727 -0.727,11.84 -1.434,23.68 -2.094,35.524 -4.395,36.486 13.941,40.197 45.392,39.117 8.315,20.061 21.782,36.807 38.417,50.432 -4.015,10.922 10.545,16.576 18.399,20.943 42.733,23.86 95.224,38.415 142.557,24.998 13.90757,-3.94224 71.34152,-17.59562 89.001,-59.86148 8.67208,-20.7556 26.30095,-128.24111 3.05295,-224.92911 z"
           id="ðŸŽ¨-Background-2"
           fill="#ffffff" />
        <path
           d="m 239.0013,-14.494 c 6.609,-1.169 14,-0.719 17.789,5.771 0.82,1.399 1.34,2.81 1.59,4.2 18.06,-4.06 36.81,-4.5 55.26,-1.84 5.5,0.789 7.43,8.119 5.01,12.31 -0.25,0.43 -0.5,0.849 -0.77,1.26 5.78,0.469 11.55,1.469 17.27,3.01 4.07,1.1 7.87,6.37 6.061,10.69 -0.161,0.38 -0.331,0.76 -0.5,1.139 8.989,1.511 17.579,5.041 25.089,10.741 0.9,0.67 1.73,1.54 2.42,2.53 16.79,-1.891 34.08,1.58 49.07,9.68 4.2,2.269 6.23,8.81 3.38,12.89 -0.89,1.27 -1.82,2.48 -2.82,3.65 6.52,2.41 12.29,6.309 16.18,12.66 4.23,6.89 5.53,15.76 3.26,23.34 4.74,4.83 7.22,12.229 5.53,19.649 -1.54,6.771 -5.69,11.07 -11.01,13.651 1.08,3.3 0.21,7.05 -2.24,9.599 -3.76,3.91 -8.26,6.91 -13.16,8.881 -0.01,1.27 -0.33,2.58 -0.97,3.8 -4.42,8.479 -13.95,14.11 -23.64,14.96 3.26,13.689 5.94,27.55 8.54,41.33 4.621,24.51 8.2,49.26 10.38,74.109 l 0.26461,3.07306 c 3.55124,42.04827 4.37682,86.09863 -4.17461,127.57794 -5.45,26.41 -21.97,48.67 -44.01,63.75 -22.41,15.339 -49.79,22.97 -76.73,24.179 -13.74,0.611 -27.609,-0.55 -41.069,-3.369 -6.391,-1.34 -12.561,-3.24 -18.631,-5.66 -6.53,-2.61 -11.909,-6.46 -17.43,-10.79 -2.87,-2.25 -1.229,-7.56 2.17,-8.231 2.43,-0.489 4.83,-1.019 7.25,-1.459 2.22,-0.411 4.641,1.81 4.18,3.86 l 4.68224,1.20557 c 1.56064,0.40253 3.12032,0.80854 4.67648,1.22649 l 2.33128,0.63694 c 6.63,1.851 13.41,3.41 20.21,4.521 13.84,2.25 28.24,2.3 42.15,0.55 23.39,-2.93 47.28,-11.27 65.47,-26.64 8.92,-7.54 16.35,-16.47 21.74,-26.84 6.85,-13.171 8.92,-27.841 10.64,-42.41 4.97,-42.13 3.44,-84.32 -0.42,-126.46 -1.92,-20.96 -4.54,-41.88 -7.32,-62.75 -1.43,-10.7 -2.97,-21.42 -4.239,-32.16 -2.831,-0.76 -5.531,-2.02 -7.951,-3.85 -1.64,-1.24 -2.6,-2.681 -3.02,-4.15 -2.44375,-0.46096 -4.78556,-1.80175 -6.47358,-4.06901 L 364.8003,154.957 c -4.43,-6.411 -12.089,-10.08 -19.18,-12.75 -4.3,-1.62 -8.68,-3.031 -13.04,-4.47 -4.54,-1.51 -9.34,-3.74 -14.11,-4.32 -5.41,-0.64 -10.86,0.99 -16.32,0.41 -4.96,-0.54 -9.33,-2.321 -12.899,-5.88 -1.25,-1.24 -2.331,-2.67 -3.191,-4.21 -16.65,3.559 -34.14,-0.93 -51.44,0.15 -11.38,0.72 -21.42,7.76 -32.92,7.57 -3.14,-0.05 -6.18,-1.15 -8.39,-3.08 -10.849,2.07 -21.88,6.049 -32.08,9.469 -10.08,3.381 -19.78,7.931 -29.74,11.621 -0.01,0.01 -0.01,0.01 -0.01,0.02 -1.3,4.21 -5.18,6.029 -9.31,5.29 -13.51,-2.41 -24.89,-10.931 -38.04,-14.05 -3.62,13.19 -7.51,26.209 -10.169,39.66 -2.691,13.57 -4.581,27.32 -5.831,41.1 -1.26,13.83 -1.86,27.8 -1.89,41.68 -0.01,7.08 0.17,14.179 0.41,21.259 0.194444,5.93153 1.324653,13.43117 -0.818212,19.13553 L 65.6403,304.046 h -0.01 c -0.26,0.831 -1.43,1.331 -2.09,0.561 -4.03,-4.681 -4.99,-12.13 -6.11,-18.011 -1.36,-7.139 -2.23,-14.349 -2.929,-21.58 -1.401,-14.51 -1.711,-28.959 -0.971,-43.529 1.45,-28.68 6.05,-58.971 15.87,-86.08 -3.02,0.279 -4.37,-4.17 -4.57,-6.68 -0.382609,-5.04435 0.407561,-10.3972 1.263911,-15.45628 l 0.895302,-5.23729 c 0.848843,-4.94351 1.747454,-9.758097 3.430787,-14.56643 4.041,-11.541 9.85,-22.38 17.09,-32.23 14.77,-20.09 35.241,-35.301 58.55,-44.07 1.46,-0.55 2.84,-0.54 4.06,-0.121 21.21,-11.429 44.01,-20.229 67.17,-26.489 7.16,-1.93 14.41,-3.75 21.711,-5.051 z M 62.8606,307.9365 c 9.63,-6.039 29.5,-7.619 34.87,5.25 0.22,0.52 -0.4,0.98 -0.86,0.86 l -1.314047,-0.33193 c -5.047726,-1.25078 -9.409637,-1.96944 -14.585953,0.10293 -4.55,1.82 -8.97,4.669 -11.98,8.589 -7.115238,9.27048 -7.886762,21.86293 -7.223207,33.10796 l 0.03321,0.54304 c 0.62,9.869 3.15,21.889 12.8,26.769 4.89,2.47 10.18,2.29 15.49,2.25 6.05,-0.04 12.229997,0.62 18.009997,2.481 3.23,1.039 4.75,5.319 2.07,7.83 -0.89,0.83 -1.82,1.609 -2.8,2.309 2.93,3.121 5.81,6.281 8.6,9.611 4.73,5.649 9.76,11.109 15.01,16.279 5.08,4.99 10.46,9.82 16.26,13.96 6.1,4.341 13.4,7.39 18.68,12.71 3.44,3.461 2.85,8.29 0,11.79 -7.0752,8.69856 -19.11782,-0.44598 -25.88263,-5.58948 l -0.81737,-0.62052 c -7.03,-5.32 -13.71,-11.06 -19.4,-17.82 -5.8,-6.9 -10.82,-14.24 -14.53,-22.47 -2.18,-4.84 -3.57,-9.409 -4.32,-14.189 -12.159997,5.28 -27.489997,3.599 -38.389997,-3.831 -14.47,-9.86 -18.53,-27.959 -18.580648,-44.48 l 0.0015,-0.97944 C 44.108496,336.0086 48.3272,317.0505 62.8606,307.9365 Z m 27.433788,23.27514 0.445912,0.005 c 5.355333,0.116 10.13131,2.04482 14.68022,4.70251 l 0.46978,0.27749 c 4.42,2.63 10.76,4.739 13.1,9.66 1.4,2.97 1.3,6.37 -1.14,8.829 -4.42,4.461 -11.09,3.721 -15.87,0.24 -3.57,-2.609 -5.92,-6.519 -9.42,-9.16 -6.58,-4.979 -16.96,-4.699 -23.809,-0.389 -0.421,0.27 -0.83,-0.24 -0.641,-0.64 4.206288,-8.60758 12.542523,-13.55853 22.184088,-13.52526 z"
           id="ðŸ–-Ink-04"
           fill="#000000"
           inkscape:label="ðŸ–-Ink-04" />
      </g>
      <g
         id="face/Smile"
         transform="translate(531,366)"
         fill="#000000">
        <path
           d="m 146.58657,240.92655 c -6.72228,-2.74235 -12.72025,-7.31677 -17.10534,-13.1603 -1.52454,-2.03145 -1.91983,-4.17663 -1.60001,-6.13867 0.35961,-2.20617 1.66482,-4.20568 3.44483,-5.54689 1.78552,-1.34536 4.01898,-2.00886 6.17828,-1.67063 1.8763,0.29391 3.74407,1.32123 5.22226,3.45185 l 0.30884,0.42607 c 2.60701,3.52695 6.00419,6.42077 9.87504,8.28601 3.73087,1.79779 7.90347,2.63688 12.22143,2.14893 8.22383,-0.92898 13.89211,-5.37652 19.91687,-11.4162 0.74679,-0.76253 1.49406,-1.54895 2.24494,-2.34804 0.4742,-0.72437 1.13228,-1.18992 1.86291,-1.43419 0.81125,-0.27122 1.72895,-0.25587 2.5695,0.0375 0.81071,0.28292 1.53545,0.81904 2.02141,1.53259 0.46186,0.67816 0.72372,1.51595 0.63875,2.4796 -0.55145,6.25914 -3.82381,11.84516 -8.47205,16.23136 -5.16246,4.87144 -12.00568,8.24153 -18.44827,9.42353 -7.09785,1.30202 -14.33037,0.3692 -20.87939,-2.30248 z m 24.22773,-96.5594 c 7.55138,4.59005 19.05736,15.29314 10.93382,26.67242 -9.56219,10.03349 -23.32959,-1.47059 -30.11392,-6.67344 -6.29075,-4.03223 -13.35876,6.33838 -7.5222,11.04669 49.02374,36.29524 68.91861,-29.84543 30.52169,-36.44243 -4.22764,-0.72697 -5.7978,3.97678 -3.81939,5.39676 z M 82.9633,102.1464 c 0.834328,-10.356276 16.607,-12.708 18.176,-2.46 1.405,9.18 -0.249,17.613 -4.384,25.878 -3.951,7.896 -13.881517,4.21214 -14.632517,-2.97786 C 81.116098,112.94865 82.4443,108.5886 82.9633,102.1464 Z M 203.027,97.5615 c 2.199,-2.88 5.374,-4.846 9.178,-3.735 11.885,3.473 8.382,20.346 4.208,28.559 -2.268,4.46 -9.599,5.591 -12.912,1.664 -5.4,-6.404 -7.986,-19.193 -1.121,-25.501 0.186,-0.326 0.393,-0.655 0.647,-0.987 z M 96.5879,56.8305 98.465271,56.501905 C 104.27307,55.49746 111.4944,54.5323 115.6029,59.2015 c 2.179,2.476 2.929,7.078 0,9.448 -5.152,4.17 -10.848,2.554 -17.022,2.907 -5.088,0.292 -9.978,1.134 -14.879,2.535 -10.752,3.073 -19.513,8.683 -28.696,14.843 -1.205,0.808 -2.435,-0.733 -1.86,-1.86 5.301,-10.383 15.574,-18.912 25.864,-24.111 5.492,-2.775 11.502,-5.077 17.578,-6.133 z m 95.60498,-4.651112 1.43693,0.29408 c 15.63723,3.268609 35.95366,9.797923 43.35865,25.157378 0.28216,2.171881 -0.016,2.637359 -0.25841,2.941475 l -0.0807,0.1012 c -0.19977,0.259698 -0.35917,0.617689 -1.30056,0.913286 -0.26123,-0.06224 -0.52507,-0.128164 -0.7917,-0.198038 -3.39431,-0.889526 -6.07988,-2.114973 -8.67978,-3.38652 l -2.81896,-1.3888 c -3.27056,-1.603618 -6.56999,-3.148872 -10.06663,-4.289637 -7.46213,-2.433945 -15.13757,-4.148508 -22.93193,-5.064045 -1.68937,-0.198267 -3.31613,-0.768428 -4.59952,-1.745591 -1.2182,-0.927524 -2.14882,-2.211702 -2.57313,-3.918655 -0.54991,-2.20907 -0.39188,-3.881517 0.79338,-5.874422 0.89125,-1.496628 2.16647,-2.533988 3.63075,-3.129675 1.49278,-0.607277 3.19228,-0.750442 4.88162,-0.412036 z"
           id="path144" />
      </g>
      <g
         id="accessories/Glasses"
         stroke="none"
         stroke-width="1"
         fill="none"
         fill-rule="evenodd"
         transform="translate(415.37978,419.42728)">
        <path
           d="m 389.0901,63.2824 c -9.534,64.489 -76.088,71.621 -87.913,7.599 1.898,-0.831 3.263,-2.467 2.978,-5.643 -0.067,-13.952 4.264,-28.698 16.85,-36.457 13.006,-8.006 28.227,-8.8 43.278,-8.598 28.722,-0.684 28.118,23.323 24.807,43.099 m -98.332,-28.047 c -9.014,-0.38 -20.418,-0.062 -28.493,5.43 -2.22,-5.978 -7.988,-12.361 -13.816,-15.774 21.662,0.634 43.96,-1.498 65.784,-3.153 -5.224,3.561 -10.084,8.911 -13.243,15.096 -2.931,-1.563 -7.129,-1.417 -10.232,-1.599 m -39.732,34.884 c -24.995,86.036 -87.386,48.536 -94.188,37.51 -12.269,-18.246 -14.577,-62.6 -3.89,-74.459 15.298,-10.724 36.955,-7.964 55.027,-8.227 33.201,0.448 56.781,10.38 43.051,45.176 m 167.577,-39.571 c -6.791,-0.888 -14.048,-1.067 -20.362,1.923 -1.944,-8.263 -8.047,-15.171 -14.938,-18.211 -0.834,-1.046 -0.709,-1.608 -3.558,-1.451 -17.495,-5.258 -37.072,-2.476 -53.884,2.916 -26.552,2.236 -54.409,3.999 -81.184,7.08 -25.082,-11.264 -100.775,-12.915 -105.479,14.848 -5.917,-0.885 -15.994,-5.542 -20.966,0.775 -36.471,-6.183 -74.156,2.41 -110.785,6.237 -9.22,1.698 -13.969,19.996 -3.503,19.746 5.884,-1.597 -0.181,-11.394 7.742,-12.131 35.341,-3.86 69.909,-9.336 105.612,-9.977 -1.242,6.165 23.614,6.566 23.981,2.966 0.053,0.027 0.109,0.045 0.163,0.069 -6.142,22.89 -0.598,55.832 10.502,70.026 15.552,18.586 54.597,23.918 71.91,11.96 22.333,-11.037 45.566,-66.439 39.04,-84.845 11.844,-3.754 23.553,-2.627 35.845,-0.715 -2.814,7.949 -7.672,27.517 -0.683,29.214 -1.283,38.85 34.074,63.091 66.668,47.154 28.211,-13.243 38.077,-55.161 34.625,-80.604 3.512,6.786 33,-0.602 19.254,-6.98"
           id="ðŸ–-Ink-2"
           fill="#000000" />
      </g>
    </g>
  </g>
  <metadata
     id="metadata886">
    <rdf:RDF>
      <cc:Work
         rdf:about="">
        <dc:title>a mono/bust</dc:title>
      </cc:Work>
    </rdf:RDF>
  </metadata>
</svg>
