<?xml version="1.0" encoding="UTF-8" standalone="no"?>
<svg
   width="800"
   height="800"
   viewBox="0 0 800 800"
   version="1.1"
   id="svg150"
   sodipodi:docname="head.svg"
   inkscape:version="1.2.2 (b0a84865, 2022-12-01)"
   inkscape:export-filename="head.png"
   inkscape:export-xdpi="95.070419"
   inkscape:export-ydpi="95.070419"
   xmlns:inkscape="http://www.inkscape.org/namespaces/inkscape"
   xmlns:sodipodi="http://sodipodi.sourceforge.net/DTD/sodipodi-0.dtd"
   xmlns="http://www.w3.org/2000/svg"
   xmlns:svg="http://www.w3.org/2000/svg"
   xmlns:rdf="http://www.w3.org/1999/02/22-rdf-syntax-ns#"
   xmlns:cc="http://creativecommons.org/ns#"
   xmlns:dc="http://purl.org/dc/elements/1.1/">
  <defs
     id="defs154" />
  <sodipodi:namedview
     id="namedview152"
     pagecolor="#ffffff"
     bordercolor="#000000"
     borderopacity="0.25"
     inkscape:showpageshadow="2"
     inkscape:pageopacity="0.0"
     inkscape:pagecheckerboard="0"
     inkscape:deskcolor="#d1d1d1"
     showgrid="false"
     inkscape:zoom="0.43542648"
     inkscape:cx="-17.224492"
     inkscape:cy="481.13748"
     inkscape:window-width="1512"
     inkscape:window-height="861"
     inkscape:window-x="0"
     inkscape:window-y="38"
     inkscape:window-maximized="0"
     inkscape:current-layer="a-mono/bust" />
  <!-- Generator: Sketch 62 (91390) - https://sketch.com -->
  <title
     id="title132">a mono/bust</title>
  <desc
     id="desc134">Created with Sketch.</desc>
  <g
     id="a-mono/bust"
     stroke="none"
     stroke-width="1"
     fill="none"
     fill-rule="evenodd">
    <g
       id="facial-hair/*-None"
       transform="translate(494.99993,517.99966)"
       inkscape:label="facial-hair/*-None" />
    <g
       id="accessories/*-None"
       transform="translate(419,421)" />
    <g
       id="g376"
       transform="translate(-403.38025,-33.592159)">
      <g
         id="head/mono/Shaved-2"
         stroke="none"
         stroke-width="1"
         fill="none"
         fill-rule="evenodd"
         transform="translate(388.0374,189.96486)">
        <path
           d="m 388.41667,151.80883 c -7.07799,-25.496 -6.06557,-28.25363 -16.61457,-52.60663 -34.98,-70.75 -268.739,-47.061 -292.596,23.563 -12.942589,38.31401 -9.902,92.273 -13.271,125.496 -1.030956,17.6147 -2.04368,35.23051 -3.09279,52.84373 -0.362314,6.08278 -0.728967,12.16526 -1.10221,18.24727 -0.727,11.84 -1.434,23.68 -2.094,35.524 -4.395,36.486 13.941,40.197 45.392,39.117 8.315,20.061 21.782,36.807 38.417,50.432 -4.015,10.922 10.545,16.576 18.399,20.943 42.733,23.86 95.224,38.415 142.557,24.998 13.90757,-3.94224 71.34152,-17.59562 89.001,-59.86148 8.67208,-20.7556 26.30095,-128.24111 3.05295,-224.92911 z"
           id="ðŸŽ¨-Background-2"
           fill="#ffffff" />
        <path
           d="m 239.0013,-14.494 c 6.609,-1.169 14,-0.719 17.789,5.771 0.82,1.399 1.34,2.81 1.59,4.2 18.06,-4.06 36.81,-4.5 55.26,-1.84 5.5,0.789 7.43,8.119 5.01,12.31 -0.25,0.43 -0.5,0.849 -0.77,1.26 5.78,0.469 11.55,1.469 17.27,3.01 4.07,1.1 7.87,6.37 6.061,10.69 -0.161,0.38 -0.331,0.76 -0.5,1.139 8.989,1.511 17.579,5.041 25.089,10.741 0.9,0.67 1.73,1.54 2.42,2.53 16.79,-1.891 34.08,1.58 49.07,9.68 4.2,2.269 6.23,8.81 3.38,12.89 -0.89,1.27 -1.82,2.48 -2.82,3.65 6.52,2.41 12.29,6.309 16.18,12.66 4.23,6.89 5.53,15.76 3.26,23.34 4.74,4.83 7.22,12.229 5.53,19.649 -1.54,6.771 -5.69,11.07 -11.01,13.651 1.08,3.3 0.21,7.05 -2.24,9.599 -3.76,3.91 -8.26,6.91 -13.16,8.881 -0.01,1.27 -0.33,2.58 -0.97,3.8 -4.42,8.479 -13.95,14.11 -23.64,14.96 3.26,13.689 5.94,27.55 8.54,41.33 4.621,24.51 8.2,49.26 10.38,74.109 l 0.26461,3.07306 c 3.55124,42.04827 4.37682,86.09863 -4.17461,127.57794 -5.45,26.41 -21.97,48.67 -44.01,63.75 -22.41,15.339 -49.79,22.97 -76.73,24.179 -13.74,0.611 -27.609,-0.55 -41.069,-3.369 -6.391,-1.34 -12.561,-3.24 -18.631,-5.66 -6.53,-2.61 -11.909,-6.46 -17.43,-10.79 -2.87,-2.25 -1.229,-7.56 2.17,-8.231 2.43,-0.489 4.83,-1.019 7.25,-1.459 2.22,-0.411 4.641,1.81 4.18,3.86 l 4.68224,1.20557 c 1.56064,0.40253 3.12032,0.80854 4.67648,1.22649 l 2.33128,0.63694 c 6.63,1.851 13.41,3.41 20.21,4.521 13.84,2.25 28.24,2.3 42.15,0.55 23.39,-2.93 47.28,-11.27 65.47,-26.64 8.92,-7.54 16.35,-16.47 21.74,-26.84 6.85,-13.171 8.92,-27.841 10.64,-42.41 4.97,-42.13 3.44,-84.32 -0.42,-126.46 -1.92,-20.96 -4.54,-41.88 -7.32,-62.75 -1.43,-10.7 -2.97,-21.42 -4.239,-32.16 -2.831,-0.76 -5.531,-2.02 -7.951,-3.85 -1.64,-1.24 -2.6,-2.681 -3.02,-4.15 -2.44375,-0.46096 -4.78556,-1.80175 -6.47358,-4.06901 L 364.8003,154.957 c -4.43,-6.411 -12.089,-10.08 -19.18,-12.75 -4.3,-1.62 -8.68,-3.031 -13.04,-4.47 -4.54,-1.51 -9.34,-3.74 -14.11,-4.32 -5.41,-0.64 -10.86,0.99 -16.32,0.41 -4.96,-0.54 -9.33,-2.321 -12.899,-5.88 -1.25,-1.24 -2.331,-2.67 -3.191,-4.21 -16.65,3.559 -34.14,-0.93 -51.44,0.15 -11.38,0.72 -21.42,7.76 -32.92,7.57 -3.14,-0.05 -6.18,-1.15 -8.39,-3.08 -10.849,2.07 -21.88,6.049 -32.08,9.469 -10.08,3.381 -19.78,7.931 -29.74,11.621 -0.01,0.01 -0.01,0.01 -0.01,0.02 -1.3,4.21 -5.18,6.029 -9.31,5.29 -13.51,-2.41 -24.89,-10.931 -38.04,-14.05 -3.62,13.19 -7.51,26.209 -10.169,39.66 -2.691,13.57 -4.581,27.32 -5.831,41.1 -1.26,13.83 -1.86,27.8 -1.89,41.68 -0.01,7.08 0.17,14.179 0.41,21.259 0.194444,5.93153 1.324653,13.43117 -0.818212,19.13553 L 65.6403,304.046 h -0.01 c -0.26,0.831 -1.43,1.331 -2.09,0.561 -4.03,-4.681 -4.99,-12.13 -6.11,-18.011 -1.36,-7.139 -2.23,-14.349 -2.929,-21.58 -1.401,-14.51 -1.711,-28.959 -0.971,-43.529 1.45,-28.68 6.05,-58.971 15.87,-86.08 -3.02,0.279 -4.37,-4.17 -4.57,-6.68 -0.382609,-5.04435 0.407561,-10.3972 1.263911,-15.45628 l 0.895302,-5.23729 c 0.848843,-4.94351 1.747454,-9.758097 3.430787,-14.56643 4.041,-11.541 9.85,-22.38 17.09,-32.23 14.77,-20.09 35.241,-35.301 58.55,-44.07 1.46,-0.55 2.84,-0.54 4.06,-0.121 21.21,-11.429 44.01,-20.229 67.17,-26.489 7.16,-1.93 14.41,-3.75 21.711,-5.051 z M 62.8606,307.9365 c 9.63,-6.039 29.5,-7.619 34.87,5.25 0.22,0.52 -0.4,0.98 -0.86,0.86 l -1.314047,-0.33193 c -5.047726,-1.25078 -9.409637,-1.96944 -14.585953,0.10293 -4.55,1.82 -8.97,4.669 -11.98,8.589 -7.115238,9.27048 -7.886762,21.86293 -7.223207,33.10796 l 0.03321,0.54304 c 0.62,9.869 3.15,21.889 12.8,26.769 4.89,2.47 10.18,2.29 15.49,2.25 6.05,-0.04 12.229997,0.62 18.009997,2.481 3.23,1.039 4.75,5.319 2.07,7.83 -0.89,0.83 -1.82,1.609 -2.8,2.309 2.93,3.121 5.81,6.281 8.6,9.611 4.73,5.649 9.76,11.109 15.01,16.279 5.08,4.99 10.46,9.82 16.26,13.96 6.1,4.341 13.4,7.39 18.68,12.71 3.44,3.461 2.85,8.29 0,11.79 -7.0752,8.69856 -19.11782,-0.44598 -25.88263,-5.58948 l -0.81737,-0.62052 c -7.03,-5.32 -13.71,-11.06 -19.4,-17.82 -5.8,-6.9 -10.82,-14.24 -14.53,-22.47 -2.18,-4.84 -3.57,-9.409 -4.32,-14.189 -12.159997,5.28 -27.489997,3.599 -38.389997,-3.831 -14.47,-9.86 -18.53,-27.959 -18.580648,-44.48 l 0.0015,-0.97944 C 44.108496,336.0086 48.3272,317.0505 62.8606,307.9365 Z m 27.433788,23.27514 0.445912,0.005 c 5.355333,0.116 10.13131,2.04482 14.68022,4.70251 l 0.46978,0.27749 c 4.42,2.63 10.76,4.739 13.1,9.66 1.4,2.97 1.3,6.37 -1.14,8.829 -4.42,4.461 -11.09,3.721 -15.87,0.24 -3.57,-2.609 -5.92,-6.519 -9.42,-9.16 -6.58,-4.979 -16.96,-4.699 -23.809,-0.389 -0.421,0.27 -0.83,-0.24 -0.641,-0.64 4.206288,-8.60758 12.542523,-13.55853 22.184088,-13.52526 z"
           id="ðŸ–-Ink-04"
           fill="#000000"
           inkscape:label="ðŸ–-Ink-04" />
      </g>
      <g
         id="face/Smile"
         transform="translate(531,366)"
         fill="#000000">
        <path
           d="m 146.58657,240.92655 c -6.72228,-2.74235 -12.72025,-7.31677 -17.10534,-13.1603 -1.52454,-2.03145 -1.91983,-4.17663 -1.60001,-6.13867 0.35961,-2.20617 1.66482,-4.20568 3.44483,-5.54689 1.78552,-1.34536 4.01898,-2.00886 6.17828,-1.67063 1.8763,0.29391 3.74407,1.32123 5.22226,3.45185 l 0.30884,0.42607 c 2.60701,3.52695 6.00419,6.42077 9.87504,8.28601 3.73087,1.79779 7.90347,2.63688 12.22143,2.14893 8.22383,-0.92898 13.89211,-5.37652 19.91687,-11.4162 0.74679,-0.76253 1.49406,-1.54895 2.24494,-2.34804 0.4742,-0.72437 1.13228,-1.18992 1.86291,-1.43419 0.81125,-0.27122 1.72895,-0.25587 2.5695,0.0375 0.81071,0.28292 1.53545,0.81904 2.02141,1.53259 0.46186,0.67816 0.72372,1.51595 0.63875,2.4796 -0.55145,6.25914 -3.82381,11.84516 -8.47205,16.23136 -5.16246,4.87144 -12.00568,8.24153 -18.44827,9.42353 -7.09785,1.30202 -14.33037,0.3692 -20.87939,-2.30248 z m 24.22773,-96.5594 c 7.55138,4.59005 19.05736,15.29314 10.93382,26.67242 -9.56219,10.03349 -23.32959,-1.47059 -30.11392,-6.67344 -6.29075,-4.03223 -13.35876,6.33838 -7.5222,11.04669 49.02374,36.29524 68.91861,-29.84543 30.52169,-36.44243 -4.22764,-0.72697 -5.7978,3.97678 -3.81939,5.39676 z M 82.9633,102.1464 c 0.834328,-10.356276 16.607,-12.708 18.176,-2.46 1.405,9.18 -0.249,17.613 -4.384,25.878 -3.951,7.896 -13.881517,4.21214 -14.632517,-2.97786 C 81.116098,112.94865 82.4443,108.5886 82.9633,102.1464 Z M 203.027,97.5615 c 2.199,-2.88 5.374,-4.846 9.178,-3.735 11.885,3.473 8.382,20.346 4.208,28.559 -2.268,4.46 -9.599,5.591 -12.912,1.664 -5.4,-6.404 -7.986,-19.193 -1.121,-25.501 0.186,-0.326 0.393,-0.655 0.647,-0.987 z M 96.5879,56.8305 98.465271,56.501905 C 104.27307,55.49746 111.4944,54.5323 115.6029,59.2015 c 2.179,2.476 2.929,7.078 0,9.448 -5.152,4.17 -10.848,2.554 -17.022,2.907 -5.088,0.292 -9.978,1.134 -14.879,2.535 -10.752,3.073 -19.513,8.683 -28.696,14.843 -1.205,0.808 -2.435,-0.733 -1.86,-1.86 5.301,-10.383 15.574,-18.912 25.864,-24.111 5.492,-2.775 11.502,-5.077 17.578,-6.133 z m 95.60498,-4.651112 1.43693,0.29408 c 15.63723,3.268609 35.95366,9.797923 43.35865,25.157378 0.28216,2.171881 -0.016,2.637359 -0.25841,2.941475 l -0.0807,0.1012 c -0.19977,0.259698 -0.35917,0.617689 -1.30056,0.913286 -0.26123,-0.06224 -0.52507,-0.128164 -0.7917,-0.198038 -3.39431,-0.889526 -6.07988,-2.114973 -8.67978,-3.38652 l -2.81896,-1.3888 c -3.27056,-1.603618 -6.56999,-3.148872 -10.06663,-4.289637 -7.46213,-2.433945 -15.13757,-4.148508 -22.93193,-5.064045 -1.68937,-0.198267 -3.31613,-0.768428 -4.59952,-1.745591 -1.2182,-0.927524 -2.14882,-2.211702 -2.57313,-3.918655 -0.54991,-2.20907 -0.39188,-3.881517 0.79338,-5.874422 0.89125,-1.496628 2.16647,-2.533988 3.63075,-3.129675 1.49278,-0.607277 3.19228,-0.750442 4.88162,-0.412036 z"
           id="path144" />
      </g>
      <g
         id="accessories/Glasses"
         stroke="none"
         stroke-width="1"
         fill="none"
         fill-rule="evenodd"
         transform="translate(415.37978,419.42728)">
        <path
           d="m 389.0901,63.2824 c -9.534,64.489 -76.088,71.621 -87.913,7.599 1.898,-0.831 3.263,-2.467 2.978,-5.643 -0.067,-13.952 4.264,-28.698 16.85,-36.457 13.006,-8.006 28.227,-8.8 43.278,-8.598 28.722,-0.684 28.118,23.323 24.807,43.099 m -98.332,-28.047 c -9.014,-0.38 -20.418,-0.062 -28.493,5.43 -2.22,-5.978 -7.988,-12.361 -13.816,-15.774 21.662,0.634 43.96,-1.498 65.784,-3.153 -5.224,3.561 -10.084,8.911 -13.243,15.096 -2.931,-1.563 -7.129,-1.417 -10.232,-1.599 m -39.732,34.884 c -24.995,86.036 -87.386,48.536 -94.188,37.51 -12.269,-18.246 -14.577,-62.6 -3.89,-74.459 15.298,-10.724 36.955,-7.964 55.027,-8.227 33.201,0.448 56.781,10.38 43.051,45.176 m 167.577,-39.571 c -6.791,-0.888 -14.048,-1.067 -20.362,1.923 -1.944,-8.263 -8.047,-15.171 -14.938,-18.211 -0.834,-1.046 -0.709,-1.608 -3.558,-1.451 -17.495,-5.258 -37.072,-2.476 -53.884,2.916 -26.552,2.236 -54.409,3.999 -81.184,7.08 -25.082,-11.264 -100.775,-12.915 -105.479,14.848 -5.917,-0.885 -15.994,-5.542 -20.966,0.775 -36.471,-6.183 -74.156,2.41 -110.785,6.237 -9.22,1.698 -13.969,19.996 -3.503,19.746 5.884,-1.597 -0.181,-11.394 7.742,-12.131 35.341,-3.86 69.909,-9.336 105.612,-9.977 -1.242,6.165 23.614,6.566 23.981,2.966 0.053,0.027 0.109,0.045 0.163,0.069 -6.142,22.89 -0.598,55.832 10.502,70.026 15.552,18.586 54.597,23.918 71.91,11.96 22.333,-11.037 45.566,-66.439 39.04,-84.845 11.844,-3.754 23.553,-2.627 35.845,-0.715 -2.814,7.949 -7.672,27.517 -0.683,29.214 -1.283,38.85 34.074,63.091 66.668,47.154 28.211,-13.243 38.077,-55.161 34.625,-80.604 3.512,6.786 33,-0.602 19.254,-6.98"
           id="ðŸ–-Ink-2"
           fill="#000000" />
      </g>
    </g>
  </g>
  <metadata
     id="metadata477">
    <rdf:RDF>
      <cc:Work
         rdf:about="">
        <dc:title>a mono/bust</dc:title>
      </cc:Work>
    </rdf:RDF>
  </metadata>
</svg>
